<?xml version="1.0" encoding="UTF-8" standalone="no"?>
<svg
   xmlns:dc="http://purl.org/dc/elements/1.1/"
   xmlns:cc="http://creativecommons.org/ns#"
   xmlns:rdf="http://www.w3.org/1999/02/22-rdf-syntax-ns#"
   xmlns:svg="http://www.w3.org/2000/svg"
   xmlns="http://www.w3.org/2000/svg"
   xmlns:sodipodi="http://sodipodi.sourceforge.net/DTD/sodipodi-0.dtd"
   xmlns:inkscape="http://www.inkscape.org/namespaces/inkscape"
   width="210mm"
   height="297mm"
   viewBox="0 0 210 297"
   version="1.1"
   id="svg8"
   inkscape:version="1.0.1 (3bc2e813f5, 2020-09-07)"
   sodipodi:docname="alien-ciastko.svg"
   inkscape:export-filename="D:\Archiwum\16_github_repo\python-training\crash-course\alien_invasion\images\alien-ciastko.png"
   inkscape:export-xdpi="300"
   inkscape:export-ydpi="300">
  <defs
     id="defs2">
    <inkscape:path-effect
       effect="bspline"
       id="path-effect934"
       is_visible="true"
       lpeversion="1"
       weight="33.333333"
       steps="2"
       helper_size="0"
       apply_no_weight="true"
       apply_with_weight="true"
       only_selected="false" />
    <inkscape:path-effect
       effect="bspline"
       id="path-effect930"
       is_visible="true"
       lpeversion="1"
       weight="33.333333"
       steps="2"
       helper_size="0"
       apply_no_weight="true"
       apply_with_weight="true"
       only_selected="false" />
    <inkscape:path-effect
       effect="bspline"
       id="path-effect926"
       is_visible="true"
       lpeversion="1"
       weight="33.333333"
       steps="2"
       helper_size="0"
       apply_no_weight="true"
       apply_with_weight="true"
       only_selected="false" />
  </defs>
  <sodipodi:namedview
     id="base"
     pagecolor="#ffffff"
     bordercolor="#666666"
     borderopacity="1.0"
     inkscape:pageopacity="0.0"
     inkscape:pageshadow="2"
     inkscape:zoom="1.979899"
     inkscape:cx="181.83436"
     inkscape:cy="155.81089"
     inkscape:document-units="mm"
     inkscape:current-layer="layer1"
     inkscape:document-rotation="0"
     showgrid="false"
     inkscape:window-width="1920"
     inkscape:window-height="1017"
     inkscape:window-x="-8"
     inkscape:window-y="-8"
     inkscape:window-maximized="1" />
  <metadata
     id="metadata5">
    <rdf:RDF>
      <cc:Work
         rdf:about="">
        <dc:format>image/svg+xml</dc:format>
        <dc:type
           rdf:resource="http://purl.org/dc/dcmitype/StillImage" />
        <dc:title></dc:title>
      </cc:Work>
    </rdf:RDF>
  </metadata>
  <g
     inkscape:label="Warstwa 1"
     inkscape:groupmode="layer"
     id="layer1">
    <path
       id="path833"
       style="fill:#d16f18;fill-opacity:1;stroke-width:1.7537;stroke-linejoin:round;stroke-dasharray:1.7537, 1.75370000000000004"
       d="M 249.66016 66.669922 A 148.49244 53.285545 0 0 0 101.51953 119.95508 A 148.49244 53.285545 0 0 0 250.01367 173.24023 A 148.49244 53.285545 0 0 0 398.50586 119.95508 A 148.49244 53.285545 0 0 0 250.01367 66.669922 A 148.49244 53.285545 0 0 0 249.66016 66.669922 z M 247.54297 90.408203 A 100.51017 28.031734 0 0 1 247.99219 90.408203 A 100.51017 28.031734 0 0 1 348.50195 118.43945 A 100.51017 28.031734 0 0 1 247.99219 146.47266 A 100.51017 28.031734 0 0 1 147.48242 118.43945 A 100.51017 28.031734 0 0 1 247.54297 90.408203 z "
       transform="scale(0.26458333)" />
    <ellipse
       style="fill:#fff8dd;fill-opacity:1;stroke-width:0.443878;stroke-linejoin:round;stroke-dasharray:0.443878, 0.44387799999999999"
       id="path848"
       cx="65.681488"
       cy="25.123337"
       rx="30.669178"
       ry="16.30344" />
    <circle
       style="fill:#8f5100;fill-opacity:1;stroke-width:0.464;stroke-linejoin:round;stroke-dasharray:0.464, 0.464"
       id="path850"
       cx="33.94323"
       cy="28.597839"
       r="1.2027128" />
    <circle
       style="fill:#8f5100;fill-opacity:1;stroke-width:0.464;stroke-linejoin:round;stroke-dasharray:0.464, 0.464"
       id="path850-6"
       cx="95.94976"
       cy="36.215023"
       r="1.2027128" />
    <circle
       style="fill:#8f5100;fill-opacity:1;stroke-width:0.464;stroke-linejoin:round;stroke-dasharray:0.464, 0.464"
       id="path850-4"
       cx="48.509418"
       cy="42.495857"
       r="1.2027128" />
    <circle
       style="fill:#8f5100;fill-opacity:1;stroke-width:0.464;stroke-linejoin:round;stroke-dasharray:0.464, 0.464"
       id="path850-41"
       cx="31.1369"
       cy="34.076866"
       r="1.2027128" />
    <circle
       style="fill:#8f5100;fill-opacity:1;stroke-width:0.464;stroke-linejoin:round;stroke-dasharray:0.464, 0.464"
       id="path850-1"
       cx="65.213768"
       cy="44.099472"
       r="1.2027128" />
    <circle
       style="fill:#8f5100;fill-opacity:1;stroke-width:0.464;stroke-linejoin:round;stroke-dasharray:0.464, 0.464"
       id="path850-7"
       cx="86.862595"
       cy="39.555889"
       r="1.2027128" />
    <circle
       style="fill:#8f5100;fill-opacity:1;stroke-width:0.464;stroke-linejoin:round;stroke-dasharray:0.464, 0.464"
       id="path850-2"
       cx="79.913589"
       cy="43.698566"
       r="1.2027128" />
    <circle
       style="fill:#8f5100;fill-opacity:1;stroke-width:0.464;stroke-linejoin:round;stroke-dasharray:0.464, 0.464"
       id="path850-1-4"
       cx="98.889725"
       cy="28.063301"
       r="1.2027128" />
    <circle
       style="fill:#8f5100;fill-opacity:1;stroke-width:0.464;stroke-linejoin:round;stroke-dasharray:0.464, 0.464"
       id="path850-1-8"
       cx="101.29515"
       cy="32.874153"
       r="1.2027128" />
    <circle
       style="fill:#8f5100;fill-opacity:1;stroke-width:0.464;stroke-linejoin:round;stroke-dasharray:0.464, 0.464"
       id="path850-1-42"
       cx="40.3577"
       cy="38.219543"
       r="1.2027128" />
    <path
       style="fill:none;fill-opacity:1;stroke:#703d04;stroke-width:2.34273;stroke-linecap:butt;stroke-linejoin:miter;stroke-miterlimit:4;stroke-dasharray:none;stroke-dashoffset:0;stroke-opacity:1"
       d="m 70.291885,17.157813 c -0.219624,-0.129304 -0.44235,-0.260434 -0.977116,-0.326911 -0.534766,-0.06648 -1.381118,-0.06648 -2.784284,-0.06648 -1.403166,0 -3.363141,0 -5.055933,0.04363 -1.692791,0.04363 -3.11823,0.131053 -4.14364,0.371305 -1.025411,0.240252 -1.649039,0.633641 -2.60719,1.573714 -0.95815,0.940074 -2.249953,2.42621 -2.805978,3.367462 -0.556024,0.941252 -0.377845,1.334639 1.182059,1.879806 1.559905,0.545166 4.499867,1.244523 7.172317,1.571956 2.67245,0.327433 5.077877,0.283723 6.525198,0.196084 1.447322,-0.08764 1.937315,-0.218769 2.472045,-0.327967 0.53473,-0.109197 1.113816,-0.196616 1.580989,-0.327851 0.467172,-0.131235 0.823531,-0.306074 1.247212,-0.437121 0.423682,-0.131047 0.913675,-0.218467 1.803949,-0.63377 0.890274,-0.415304 2.182078,-1.158372 2.894111,-1.660291 0.712033,-0.501919 0.845667,-0.764177 0.979337,-1.004721 0.13367,-0.240544 0.267304,-0.459093 0.33434,-0.63299 0.06704,-0.173897 0.06704,-0.305027 0.06704,-0.589141 0,-0.284114 0,-0.721212 -0.778195,-1.682848 C 76.619951,17.510042 75.06088,16.023908 74.080997,15.257864 73.101114,14.491821 72.70021,14.448111 72.210307,14.360882 71.720403,14.273652 71.14132,14.142523 70.205661,14.07661 69.270003,14.0107 67.978199,14.0107 66.641852,14.0107 c -1.336347,0 -2.717239,0 -4.343296,0.10914 -1.626058,0.109139 -3.496945,0.327689 -4.94474,0.524335 -1.447795,0.196647 -2.472328,0.371486 -3.741957,0.633704 -1.269629,0.262217 -2.784157,0.611896 -4.188219,1.376974 -1.404062,0.765078 -2.695864,1.945243 -3.587033,2.907225 -0.891169,0.961982 -1.381163,1.70505 -1.648394,2.230354 -0.267232,0.525305 -0.311776,0.831273 -0.378701,1.093099 -0.06693,0.261826 -0.156016,0.480378 -0.200296,1.005544 -0.04428,0.525165 -0.04428,1.355652 0.714501,2.273267 0.75878,0.917616 2.273308,1.922942 3.34243,2.600312 1.069122,0.677371 1.69275,1.027049 3.808584,1.529113 2.115833,0.502063 5.723969,1.157711 9.487986,1.769589 3.764016,0.611879 7.683972,1.180107 10.312006,1.485906 2.628034,0.305799 3.964381,0.349508 5.389738,0.349426 1.425358,-8.1e-5 2.939886,-0.04379 4.386796,-0.437403 1.446909,-0.393612 2.827802,-1.136679 3.985306,-2.185195 1.157504,-1.048515 2.092947,-2.40352 2.649831,-3.190427 0.556884,-0.786906 0.735063,-1.005454 0.868736,-1.900419 0.133674,-0.894965 0.222764,-2.46852 0.311991,-4.044512"
       id="path932"
       inkscape:path-effect="#path-effect934"
       inkscape:original-d="m 70.291885,17.157813 c -0.220078,-0.128533 -0.442804,-0.259663 -0.668173,-0.393388 -0.843709,0.0026 -1.690061,0.0026 -2.539061,0 -1.957332,0.0026 -3.917307,0.0026 -5.879931,0 -1.422791,0.09001 -2.848229,0.177435 -4.276312,0.262258 -0.620982,0.395985 -1.24461,0.789374 -1.870887,1.180166 -1.289156,1.488731 -2.580958,2.974867 -3.875408,4.458405 0.180827,0.395985 0.359005,0.789373 0.534541,1.180166 2.942611,0.701953 5.882573,1.401311 8.819893,2.098072 2.408071,-0.04111 4.813498,-0.08482 7.216277,-0.131129 0.492641,-0.128534 0.982634,-0.259663 1.469983,-0.393389 0.581729,-0.08482 1.160814,-0.172243 1.737251,-0.262258 0.359006,-0.172244 0.715365,-0.347083 1.069079,-0.524519 0.49264,-0.08482 0.982633,-0.172243 1.469982,-0.262259 1.294448,-0.740471 2.586252,-1.483538 3.875408,-2.229202 0.136281,-0.259664 0.269914,-0.521922 0.400904,-0.786778 0.136282,-0.215952 0.269915,-0.434502 0.400905,-0.655647 0.0026,-0.128533 0.0026,-0.259663 0,-0.393389 0.0026,-0.434502 0.0026,-0.8716 0,-1.311295 -1.556427,-1.483539 -3.115498,-2.969674 -4.677217,-4.458405 -0.398259,-0.04111 -0.799163,-0.08482 -1.202714,-0.13113 -0.576437,-0.128533 -1.15552,-0.259663 -1.737251,-0.393388 -1.289156,0.0026 -2.58096,0.0026 -3.875408,0 -1.378246,0.0026 -2.759138,0.0026 -4.142676,0 -1.868242,0.221145 -3.739129,0.439695 -5.612662,0.655648 -1.021887,0.177435 -2.04642,0.352275 -3.073598,0.524518 -1.511882,0.352275 -3.02641,0.701953 -4.543584,1.049036 -1.289156,1.182762 -2.580957,2.362928 -3.875408,3.540498 -0.487346,0.745664 -0.977341,1.488731 -1.469982,2.229202 -0.0419,0.308566 -0.08644,0.614534 -0.133633,0.917906 -0.08644,0.221146 -0.175536,0.439696 -0.267272,0.655648 0.0026,0.833084 0.0026,1.663571 0,2.491462 1.517174,1.007923 3.031702,2.013249 4.543584,3.015979 0.626274,0.352275 1.249902,0.701954 1.870887,1.049036 3.610785,0.658244 7.218921,1.313892 10.824414,1.966945 3.922598,0.570824 7.842554,1.139051 11.759861,1.704684 1.338993,0.04631 2.67534,0.09001 4.009041,0.131128 1.517173,-0.04111 3.031701,-0.08482 4.543583,-0.131128 1.383538,-0.740471 2.76443,-1.483539 4.142677,-2.229203 0.93809,-1.352409 1.873533,-2.707414 2.806329,-4.065015 0.180827,-0.215954 0.359005,-0.434503 0.534541,-0.65565 0.09174,-1.570957 0.180824,-3.144512 0.267268,-4.720662" />
    <ellipse
       style="fill:#c54416;fill-opacity:1;stroke:none;stroke-width:2.16393;stroke-linejoin:round;stroke-miterlimit:4;stroke-dasharray:none;stroke-dashoffset:0;stroke-opacity:1"
       id="path1254"
       cx="64.478767"
       cy="18.374781"
       rx="3.1404169"
       ry="3.8085904" />
    <ellipse
       style="fill:#119312;fill-opacity:1;stroke:#000000;stroke-width:0.1;stroke-linejoin:round;stroke-miterlimit:4;stroke-dasharray:0.1,0.3;stroke-dashoffset:0;stroke-opacity:1"
       id="path1256"
       cx="59.310314"
       cy="-30.671297"
       rx="0.86862594"
       ry="2.0045214"
       transform="rotate(39.475756)" />
  </g>
</svg>
