<?xml version="1.0" encoding="UTF-8" standalone="no"?>
<svg
   xmlns:dc="http://purl.org/dc/elements/1.1/"
   xmlns:cc="http://creativecommons.org/ns#"
   xmlns:rdf="http://www.w3.org/1999/02/22-rdf-syntax-ns#"
   xmlns:svg="http://www.w3.org/2000/svg"
   xmlns="http://www.w3.org/2000/svg"
   xmlns:sodipodi="http://sodipodi.sourceforge.net/DTD/sodipodi-0.dtd"
   xmlns:inkscape="http://www.inkscape.org/namespaces/inkscape"
   width="210mm"
   height="297mm"
   viewBox="0 0 210 297"
   version="1.1"
   id="svg8"
   inkscape:export-filename="D:\Archiwum\16_github_repo\python-training\crash-course\alien_invasion\images\statek.png"
   inkscape:export-xdpi="300"
   inkscape:export-ydpi="300"
   inkscape:version="1.0.1 (3bc2e813f5, 2020-09-07)"
   sodipodi:docname="sztatek.svg">
  <defs
     id="defs2">
    <inkscape:path-effect
       effect="bspline"
       id="path-effect894"
       is_visible="true"
       lpeversion="1"
       weight="33.333333"
       steps="2"
       helper_size="0"
       apply_no_weight="true"
       apply_with_weight="true"
       only_selected="false" />
    <inkscape:path-effect
       effect="bspline"
       id="path-effect890"
       is_visible="true"
       lpeversion="1"
       weight="33.333333"
       steps="2"
       helper_size="0"
       apply_no_weight="true"
       apply_with_weight="true"
       only_selected="false" />
    <inkscape:path-effect
       effect="bspline"
       id="path-effect839"
       is_visible="true"
       lpeversion="1"
       weight="33.333333"
       steps="2"
       helper_size="0"
       apply_no_weight="true"
       apply_with_weight="true"
       only_selected="false" />
  </defs>
  <sodipodi:namedview
     id="base"
     pagecolor="#ffffff"
     bordercolor="#666666"
     borderopacity="1.0"
     inkscape:pageopacity="0.0"
     inkscape:pageshadow="2"
     inkscape:zoom="15.839192"
     inkscape:cx="323.30018"
     inkscape:cy="783.46941"
     inkscape:document-units="mm"
     inkscape:current-layer="layer1"
     inkscape:document-rotation="0"
     showgrid="false"
     inkscape:window-width="1920"
     inkscape:window-height="1017"
     inkscape:window-x="-8"
     inkscape:window-y="-8"
     inkscape:window-maximized="1" />
  <metadata
     id="metadata5">
    <rdf:RDF>
      <cc:Work
         rdf:about="">
        <dc:format>image/svg+xml</dc:format>
        <dc:type
           rdf:resource="http://purl.org/dc/dcmitype/StillImage" />
        <dc:title></dc:title>
      </cc:Work>
    </rdf:RDF>
  </metadata>
  <g
     inkscape:label="Warstwa 1"
     inkscape:groupmode="layer"
     id="layer1">
    <g
       id="g960">
      <ellipse
         style="fill:#d0cdcd;fill-opacity:1;stroke-width:0.464;stroke-linejoin:round;stroke-dasharray:0.464, 0.464"
         id="path920-0"
         cx="85.359207"
         cy="209.33885"
         rx="0.70158249"
         ry="0.77675205" />
      <ellipse
         style="fill:#d0cdcd;fill-opacity:1;stroke-width:0.464;stroke-linejoin:round;stroke-dasharray:0.464, 0.464"
         id="path920"
         cx="84.206604"
         cy="208.16119"
         rx="0.70158249"
         ry="0.77675205" />
      <ellipse
         style="fill:#d0cdcd;fill-opacity:1;stroke-width:0.524422;stroke-linejoin:round;stroke-dasharray:0.524422, 0.524422"
         id="path918"
         cx="84.883133"
         cy="206.25691"
         rx="1.2444738"
         ry="3.583082" />
      <ellipse
         style="fill:#ffb99e;fill-opacity:1;stroke-width:0.519283;stroke-linejoin:round;stroke-dasharray:0.519283, 0.51928300000000005"
         id="path916"
         cx="84.766205"
         cy="203.40045"
         rx="1.1943607"
         ry="1.0607259" />
      <path
         style="fill:none;stroke:#000000;stroke-width:0.264583px;stroke-linecap:butt;stroke-linejoin:miter;stroke-opacity:1"
         d="m 86.745665,208.7208 c -0.07514,-0.005 -0.153053,-0.0109 -0.212297,-0.006 -0.05924,0.005 -0.09826,0.0219 -0.122628,0.0305 -0.02437,0.009 -0.0355,0.009 -0.04796,0.0142 -0.01246,0.006 -0.02358,0.0167 -0.04203,0.0248 -0.01845,0.008 -0.04635,0.0137 -0.06128,0.0207 -0.01493,0.007 -0.01493,0.0128 -0.02327,0.0226 -0.0083,0.01 -0.02504,0.0265 -0.04146,0.0402 -0.01641,0.0137 -0.0331,0.0249 -0.04753,0.0393 -0.01442,0.0144 -0.02556,0.0311 -0.04469,0.0502 -0.01913,0.0191 -0.04699,0.0413 -0.06107,0.0566 -0.01408,0.0153 -0.01408,0.0211 -0.03313,0.0334 -0.01906,0.0123 -0.05805,0.0346 -0.07796,0.0556 -0.01991,0.021 -0.01991,0.0378 -0.02796,0.0502 -0.008,0.0124 -0.02474,0.0235 -0.03924,0.0468 -0.0145,0.0233 -0.02563,0.0567 -0.03376,0.14345 -0.0081,0.0868 -0.01369,0.22597 -0.02067,0.29431 -0.007,0.0683 -0.01811,0.0683 -0.025,0.0752 -0.0069,0.007 -0.0069,0.018 -0.01441,0.0248 -0.0075,0.007 -0.0243,0.0123 -0.03345,0.0473 -0.0091,0.035 -0.0091,0.0963 -0.0091,0.16305 0,0.0668 0,0.13922 0.0041,0.17409 0.0041,0.0349 0.0097,0.0349 0.02027,0.0531 0.01059,0.0183 0.02733,0.0517 0.03488,0.0737 0.0075,0.022 0.0075,0.0331 0.02292,0.0496 0.01537,0.0165 0.04323,0.0388 0.05569,0.0584 0.01246,0.0196 0.01246,0.0363 0.01957,0.0469 0.0071,0.0106 0.01834,0.0162 0.02232,0.0279 0.004,0.0116 0.004,0.0283 0.01944,0.0447 0.01547,0.0163 0.04335,0.0331 0.06228,0.0503 0.01893,0.0173 0.03011,0.034 0.04711,0.0409 0.017,0.007 0.03927,0.007 0.07565,0.0245 0.03639,0.0177 0.08654,0.0512 0.122523,0.0668 0.03598,0.0157 0.05825,0.0157 0.08079,0.022 0.02254,0.006 0.0448,0.0175 0.07795,0.0223 0.03315,0.005 0.0777,0.005 0.111374,0.0111 0.03368,0.006 0.05593,0.0175 0.153115,0.0223 0.09718,0.005 0.269793,0.005 0.358826,0.009 0.08903,0.004 0.09473,0.01 0.108849,0.0144 0.01412,0.005 0.03645,0.0102 0.07241,0.0126 0.03596,0.002 0.08607,0.002 0.119683,0.009 0.03361,0.007 0.05031,0.0177 0.09465,0.0223 0.04434,0.005 0.116732,0.005 0.157048,-8.9e-4 0.04032,-0.005 0.05169,-0.0168 0.06415,-0.0224 0.01246,-0.006 0.0236,-0.006 0.02785,-0.0126 0.0042,-0.007 0.0042,-0.0238 0.01817,-0.0474 0.01392,-0.0236 0.04175,-0.0514 0.06932,-0.0926 0.02757,-0.0412 0.05542,-0.0969 0.08095,-0.13379 0.02552,-0.0369 0.04784,-0.0536 0.06126,-0.0693 0.01342,-0.0157 0.01902,-0.0325 0.02817,-0.0447 0.0092,-0.0122 0.02006,-0.0176 0.0252,-0.0242 0.0051,-0.007 0.0051,-0.0182 0.01896,-0.0417 0.01382,-0.0235 0.04165,-0.0569 0.05568,-0.0863 0.01402,-0.0294 0.01402,-0.0572 0.01932,-0.0857 0.0053,-0.0285 0.01642,-0.0563 0.02227,-0.0863 0.0058,-0.03 0.0058,-0.0634 0.0086,-0.0842 0.0028,-0.0208 0.0081,-0.0261 0.01099,-0.05 0.0029,-0.0239 0.0029,-0.0684 0.01391,-0.10572 0.01101,-0.0374 0.03327,-0.0652 0.04454,-0.0891 0.01127,-0.0239 0.01127,-0.0462 0.01663,-0.0667 0.0054,-0.0205 0.01653,-0.0372 0.02229,-0.078 0.0058,-0.0407 0.0058,-0.10753 -0.0015,-0.1519 -0.0072,-0.0444 -0.02396,-0.0667 -0.04667,-0.1111 -0.02272,-0.0444 -0.05055,-0.11123 -0.06767,-0.16146 -0.01712,-0.0502 -0.02268,-0.0836 -0.03866,-0.12254 -0.01598,-0.0389 -0.04381,-0.0834 -0.0587,-0.11427 -0.01489,-0.0308 -0.01489,-0.0476 -0.01914,-0.0573 -0.0043,-0.01 -0.01538,-0.01 -0.03451,-0.0145 -0.01913,-0.005 -0.04714,-0.0161 -0.07525,-0.0223 -0.02811,-0.006 -0.05595,-0.006 -0.09187,-0.014 -0.03591,-0.008 -0.08049,-0.0245 -0.128085,-0.0334 -0.0476,-0.009 -0.09771,-0.009 -0.133677,-0.0114 -0.03597,-0.002 -0.05811,-0.008 -0.07757,-0.0156 -0.01946,-0.008 -0.03638,-0.0189 -0.08114,-0.0255 -0.04475,-0.007 -0.117137,-0.007 -0.197674,-0.0147 -0.08054,-0.008 -0.169648,-0.0248 -0.234547,-0.0253 -0.0649,-5.6e-4 -0.103879,0.0161 -0.139118,0.0172 -0.03524,0.001 -0.06869,-0.0156 -0.09715,-0.0222 -0.02846,-0.007 -0.05079,-0.001 -0.07493,0.005"
         id="path892"
         inkscape:path-effect="#path-effect894"
         inkscape:original-d="m 86.745665,208.7208 c -0.07531,-0.003 -0.153262,-0.008 -0.23386,-0.0167 -0.03633,0.0193 -0.07531,0.0361 -0.116932,0.0501 -0.0085,0.003 -0.01963,0.003 -0.03341,0 -0.0085,0.0138 -0.01963,0.0249 -0.03341,0.0334 -0.02519,0.008 -0.05304,0.0138 -0.08352,0.0167 0.0026,0.008 0.0026,0.0138 0,0.0167 -0.01405,0.0193 -0.03076,0.036 -0.05011,0.0501 -0.01405,0.0138 -0.03076,0.0249 -0.05011,0.0334 -0.0085,0.0193 -0.01963,0.036 -0.03341,0.0501 -0.02519,0.0249 -0.05304,0.0472 -0.08352,0.0668 0.0026,0.008 0.0026,0.0138 0,0.0167 -0.03633,0.0249 -0.07531,0.0472 -0.11693,0.0668 0.0026,0.0193 0.0026,0.0361 0,0.0501 -0.01405,0.0138 -0.03076,0.0249 -0.05011,0.0334 -0.0085,0.0361 -0.01963,0.0695 -0.03341,0.10023 -0.0029,0.14185 -0.0085,0.28105 -0.01669,0.41761 -0.0085,0.003 -0.01963,0.003 -0.03341,0 0.0026,0.0138 0.0026,0.0249 0,0.0334 -0.01405,0.008 -0.03076,0.0138 -0.05012,0.0167 0.0026,0.0639 0.0026,0.12515 0,0.18375 0.0026,0.075 0.0026,0.14742 0,0.21716 0.0082,0.003 0.01378,0.003 0.01669,0 0.01934,0.036 0.03606,0.0695 0.05011,0.10022 0.0026,0.0138 0.0026,0.0249 0,0.0334 0.03048,0.0249 0.05833,0.0472 0.08352,0.0668 0.0026,0.0193 0.0026,0.036 0,0.0501 0.01378,0.008 0.02492,0.0138 0.03341,0.0167 0.0026,0.0193 0.0026,0.036 0,0.0501 0.03049,0.0193 0.05833,0.0361 0.08352,0.0501 0.01378,0.0193 0.02492,0.0361 0.03341,0.0501 0.02492,0.003 0.04719,0.003 0.06682,0 0.05276,0.036 0.102873,0.0695 0.150339,0.10022 0.02492,0.003 0.04719,0.003 0.06682,0 0.02492,0.0138 0.04719,0.0249 0.06682,0.0334 0.04719,0.003 0.09174,0.003 0.133635,0 0.02492,0.0138 0.04719,0.0249 0.06682,0.0334 0.175258,0.003 0.347869,0.003 0.517835,0 0.0082,0.008 0.01379,0.0138 0.0167,0.0167 0.02492,0.008 0.04719,0.0138 0.06682,0.0167 0.05276,0.003 0.10287,0.003 0.150339,0 0.01934,0.0138 0.03605,0.0249 0.05011,0.0334 0.07503,0.003 0.147418,0.003 0.217157,0 0.01378,-0.008 0.02492,-0.0196 0.03341,-0.0334 0.01378,0.003 0.02492,0.003 0.03341,0 0.0026,-0.014 0.0026,-0.0308 0,-0.0501 0.03048,-0.0252 0.05833,-0.053 0.08352,-0.0835 0.03049,-0.053 0.05833,-0.10871 0.08352,-0.16704 0.02492,-0.014 0.04719,-0.0308 0.06682,-0.0501 0.0082,-0.014 0.01378,-0.0308 0.01669,-0.0501 0.01378,-0.003 0.02492,-0.008 0.03341,-0.0167 0.0026,-0.008 0.0026,-0.0196 0,-0.0334 0.03048,-0.0308 0.05832,-0.0642 0.08352,-0.10023 0.0026,-0.0252 0.0026,-0.053 0,-0.0835 0.01378,-0.0252 0.02492,-0.053 0.03341,-0.0835 0.0026,-0.0308 0.0026,-0.0642 0,-0.10023 0.0082,-0.003 0.01378,-0.008 0.01669,-0.0167 0.0026,-0.0419 0.0026,-0.0864 0,-0.13363 0.02492,-0.0252 0.04719,-0.053 0.06682,-0.0835 0.0026,-0.0196 0.0026,-0.0419 0,-0.0668 0.01379,-0.014 0.02492,-0.0308 0.03341,-0.0501 0.0026,-0.0642 0.0026,-0.13099 0,-0.20045 -0.01405,-0.0196 -0.03076,-0.0419 -0.05011,-0.0668 -0.02519,-0.0642 -0.05304,-0.13099 -0.08352,-0.20045 -0.0029,-0.0308 -0.0085,-0.0642 -0.01669,-0.10023 -0.02519,-0.0419 -0.05304,-0.0864 -0.08352,-0.13363 0.0026,-0.014 0.0026,-0.0308 0,-0.0501 -0.0085,0.003 -0.01963,0.003 -0.03341,0 -0.02519,-0.008 -0.05304,-0.0196 -0.08352,-0.0334 -0.02519,0.003 -0.05303,0.003 -0.08352,0 -0.0419,-0.014 -0.08644,-0.0308 -0.133636,-0.0501 -0.04747,0.003 -0.09758,0.003 -0.150338,0 -0.01963,-0.003 -0.0419,-0.008 -0.06682,-0.0167 -0.01405,-0.008 -0.03076,-0.0196 -0.05011,-0.0334 -0.06974,0.003 -0.142124,0.003 -0.217157,0 -0.08644,-0.014 -0.175533,-0.0308 -0.267269,-0.0501 -0.03633,0.0193 -0.07531,0.036 -0.11693,0.0501 -0.03076,-0.014 -0.06417,-0.0308 -0.100227,-0.0501 -0.01963,0.008 -0.0419,0.0138 -0.06682,0.0167" />
      <path
         style="fill:#0000f7;fill-opacity:1;stroke-width:0.0325699;stroke-linejoin:round;stroke-dasharray:0.0325699, 0.0325699"
         d="m 87.338467,210.91934 c -0.019,-0.0201 -0.46642,-0.0685 -0.63377,-0.0685 -0.273872,-9e-5 -0.481769,-0.0434 -0.66051,-0.13759 -0.136181,-0.0718 -0.155254,-0.089 -0.225159,-0.2043 -0.04201,-0.0693 -0.08683,-0.15051 -0.09958,-0.1806 -0.03378,-0.0796 -0.03063,-0.35372 0.0045,-0.3948 0.03219,-0.0376 0.05777,-0.18647 0.07325,-0.42597 l 0.01091,-0.16897 0.188375,-0.19387 c 0.226108,-0.2327 0.306388,-0.279 0.48545,-0.28001 0.06954,-3e-4 0.163018,-0.0102 0.207724,-0.021 0.0896,-0.0224 0.482622,0.007 0.594866,0.0437 0.03411,0.0115 0.119454,0.0283 0.18966,0.0376 0.07021,0.009 0.175434,0.0282 0.233833,0.0415 0.119542,0.0276 0.136713,0.0504 0.209715,0.27948 0.02129,0.0668 0.05848,0.16268 0.08267,0.21316 0.05675,0.1184 0.05541,0.18039 -0.0075,0.34764 -0.02833,0.0752 -0.05681,0.18839 -0.06333,0.25142 -0.02015,0.19479 -0.0523,0.3014 -0.123906,0.41055 -0.03788,0.0577 -0.119571,0.18445 -0.181516,0.2815 l -0.112631,0.17649 -0.08279,1.4e-4 c -0.04554,9e-5 -0.08619,-0.003 -0.09032,-0.008 z"
         id="path896" />
      <path
         style="fill:#0000f7;fill-opacity:1;stroke-width:0.0292944;stroke-linejoin:round;stroke-dasharray:0.0292944, 0.0292944"
         d="m 87.33847,210.91934 c -0.140676,-0.0318 -0.31365,-0.0501 -0.473477,-0.0501 -0.177837,0 -0.492953,-0.0367 -0.595601,-0.0694 -0.10973,-0.0349 -0.308914,-0.13609 -0.375848,-0.19088 -0.03675,-0.0301 -0.08144,-0.0834 -0.09932,-0.11854 -0.01789,-0.0351 -0.04912,-0.0827 -0.06944,-0.10562 -0.02032,-0.023 -0.05643,-0.0885 -0.08025,-0.14566 -0.03714,-0.0891 -0.04331,-0.12856 -0.04331,-0.27697 0,-0.15026 0.0054,-0.18366 0.04069,-0.25345 0.02994,-0.0591 0.04363,-0.12059 0.0518,-0.23251 0.0061,-0.0837 0.01828,-0.18582 0.02706,-0.22699 0.01794,-0.0841 0.109881,-0.23294 0.167917,-0.27173 0.02103,-0.0141 0.09814,-0.0824 0.171329,-0.15177 0.108931,-0.10331 0.156493,-0.13545 0.262247,-0.17724 0.07105,-0.0281 0.151487,-0.0511 0.17875,-0.0511 0.02726,0 0.05207,-0.007 0.05513,-0.0166 0.0068,-0.0202 0.03196,-0.0211 0.306248,-0.0106 0.242191,0.009 0.483502,0.0335 0.584649,0.0587 0.03675,0.009 0.115679,0.0242 0.175398,0.0335 0.194561,0.0302 0.341641,0.0679 0.382061,0.098 0.03916,0.0292 0.07546,0.10317 0.19449,0.39658 0.110429,0.27219 0.112112,0.27843 0.103595,0.3842 -0.0044,0.0551 -0.02463,0.14533 -0.0449,0.20045 -0.02027,0.0551 -0.04691,0.16036 -0.05924,0.23386 -0.04201,0.25059 -0.05803,0.2975 -0.142618,0.41761 -0.04529,0.0643 -0.126776,0.18458 -0.181073,0.26727 -0.05429,0.0827 -0.110895,0.16701 -0.125781,0.18739 -0.05121,0.0701 -0.257751,0.1061 -0.410509,0.0716 z m 0.344663,-0.41763 c 0.240911,-0.34522 0.226115,-0.31369 0.263929,-0.56238 0.01281,-0.0842 0.03447,-0.17818 0.04814,-0.20881 0.0737,-0.16513 0.07852,-0.24883 0.02088,-0.36256 -0.02236,-0.0441 -0.05677,-0.12806 -0.07645,-0.18647 -0.06754,-0.20049 -0.08338,-0.22044 -0.193945,-0.2443 -0.054,-0.0116 -0.154567,-0.029 -0.223472,-0.0386 -0.06891,-0.01 -0.147834,-0.0242 -0.175395,-0.0325 -0.08684,-0.0262 -0.469588,-0.0565 -0.537218,-0.0424 -0.03528,0.007 -0.120518,0.0142 -0.189423,0.0152 -0.14732,0.002 -0.268677,0.051 -0.375846,0.15093 -0.03675,0.0343 -0.100645,0.0932 -0.141989,0.13104 -0.136014,0.12436 -0.136567,0.12568 -0.159313,0.37927 -0.01675,0.18665 -0.02755,0.24083 -0.056,0.28078 -0.05214,0.0732 -0.05061,0.30247 0.0026,0.38899 0.02053,0.0334 0.06298,0.10381 0.09435,0.15656 0.05302,0.0891 0.06773,0.10103 0.208804,0.1686 0.177089,0.0848 0.388184,0.12366 0.67223,0.12366 0.159943,0 0.320132,0.0166 0.481795,0.0498 0.03675,0.008 0.09991,0.0126 0.140362,0.0112 l 0.07355,-0.003 z"
         id="path904" />
      <path
         style="fill:none;stroke:#000000;stroke-width:0.232693px;stroke-linecap:butt;stroke-linejoin:miter;stroke-opacity:1"
         d="m 82.80873,208.89238 c -0.08712,0.019 -0.175983,0.0385 -0.232614,0.0506 -0.05663,0.0121 -0.08155,0.0171 -0.09972,0.0245 -0.01817,0.007 -0.028,0.0172 -0.0392,0.0221 -0.0112,0.005 -0.02602,0.005 -0.04693,0.017 -0.0209,0.0121 -0.04556,0.0364 -0.07203,0.0532 -0.02647,0.0168 -0.05606,0.0265 -0.07668,0.0391 -0.02062,0.0126 -0.03052,0.0272 -0.03905,0.0343 -0.0085,0.007 -0.01844,0.007 -0.03395,0.0117 -0.01551,0.005 -0.03519,0.0143 -0.06423,0.0217 -0.02904,0.007 -0.06869,0.0123 -0.09697,0.0247 -0.02828,0.0124 -0.04313,0.0319 -0.05911,0.0414 -0.01598,0.01 -0.03571,0.01 -0.04937,0.0275 -0.01366,0.018 -0.01861,0.052 -0.02609,0.0782 -0.0075,0.0261 -0.0174,0.0456 -0.02209,0.0754 -0.0047,0.0298 -0.0047,0.0686 -0.0069,0.089 -0.0022,0.0204 -0.0077,0.0259 -0.01017,0.0877 -0.0025,0.0619 -0.0025,0.17845 0.01058,0.26127 0.01305,0.0828 0.03775,0.13141 0.04937,0.16034 0.01163,0.0289 0.01163,0.0386 0.02743,0.0631 0.01581,0.0244 0.0454,0.0633 0.05923,0.0923 0.01383,0.029 0.01383,0.0484 0.0249,0.0679 0.01106,0.0194 0.0308,0.0388 0.03949,0.0534 0.0087,0.0146 0.0087,0.0242 0.01725,0.0364 0.0086,0.0122 0.02343,0.0268 0.02965,0.0359 0.0062,0.009 0.0062,0.0152 0.01727,0.0165 0.01105,0.001 0.03079,0.001 0.05325,0.007 0.02246,0.005 0.04712,0.0152 0.08393,0.0195 0.0368,0.004 0.08615,0.004 0.172575,0.007 0.08642,0.002 0.209898,0.007 0.340649,0.007 0.130752,-9e-5 0.268926,-0.005 0.352917,-0.007 0.08399,-0.002 0.113611,-0.002 0.127256,-0.004 0.01365,-0.002 0.01365,-0.005 0.02222,-0.009 0.0086,-0.004 0.0234,-0.004 0.02962,-0.006 0.0062,-0.002 0.0062,-0.005 0.01481,-0.009 0.0086,-0.004 0.02339,-0.004 0.03185,-0.0109 0.0085,-0.007 0.01343,-0.0213 0.02717,-0.0292 0.01374,-0.008 0.03349,-0.008 0.04955,-0.0128 0.01607,-0.005 0.03146,-0.015 0.04719,-0.0197 0.01572,-0.005 0.03054,-0.005 0.04947,-0.0122 0.01893,-0.007 0.04368,-0.0221 0.06915,-0.0292 0.02547,-0.007 0.05017,-0.007 0.06609,-0.0141 0.01592,-0.007 0.02585,-0.0217 0.04199,-0.0292 0.01614,-0.007 0.03588,-0.007 0.04458,-0.0105 0.0087,-0.003 0.0087,-0.0141 0.01728,-0.0202 0.0086,-0.006 0.0234,-0.006 0.02963,-0.009 0.0062,-0.003 0.0062,-0.0141 0.01233,-0.0202 0.0061,-0.006 0.016,-0.006 0.02171,-0.01 0.0057,-0.004 0.0112,-0.0147 0.01755,-0.02 0.0064,-0.005 0.01126,-0.005 0.01256,-0.0114 0.0013,-0.006 0.0013,-0.0208 0.0074,-0.0292 0.0061,-0.008 0.016,-0.008 0.02198,-0.015 0.006,-0.007 0.01096,-0.0213 0.01915,-0.0319 0.0082,-0.0106 0.01734,-0.0151 0.02207,-0.0285 0.0047,-0.0133 0.0047,-0.0375 0.0094,-0.0601 0.0047,-0.0226 0.01457,-0.042 0.01974,-0.0898 0.0052,-0.0478 0.0052,-0.12566 0.01336,-0.16835 0.0082,-0.0427 0.02244,-0.0474 0.03903,-0.0925 0.01658,-0.0451 0.03634,-0.13257 0.04279,-0.17891 0.0065,-0.0463 -0.0027,-0.0509 -0.02828,-0.0867 -0.02557,-0.0359 -0.06506,-0.10388 -0.09679,-0.15025 -0.03173,-0.0464 -0.05638,-0.0706 -0.07906,-0.10191 -0.02268,-0.0313 -0.0424,-0.0701 -0.09858,-0.0981 -0.05618,-0.0279 -0.150013,-0.0425 -0.21143,-0.0543 -0.06142,-0.0118 -0.09144,-0.0217 -0.126239,-0.027 -0.0348,-0.005 -0.07429,-0.005 -0.17287,-0.0197 -0.09858,-0.0143 -0.256565,-0.0435 -0.336894,-0.045 -0.08033,-0.002 -0.08033,0.0227 -0.09603,0.0293 -0.0157,0.007 -0.05062,-0.003 -0.072,-0.003 -0.02138,8e-5 -0.02626,0.01 -0.03122,0.0195 -0.005,0.01 -0.0099,0.0195 -0.01436,0.0283"
         id="path888"
         inkscape:path-effect="#path-effect890"
         inkscape:original-d="m 82.80873,208.89238 c -0.08652,0.0218 -0.175389,0.0412 -0.266603,0.0583 -0.02234,0.006 -0.04702,0.0121 -0.07405,0.0146 -0.0075,0.0121 -0.01741,0.0217 -0.02962,0.0292 -0.01246,0.003 -0.02728,0.003 -0.04443,0 -0.02234,0.0266 -0.04703,0.0508 -0.07405,0.0728 -0.02728,0.0121 -0.0569,0.0217 -0.08887,0.0292 -0.0075,0.0168 -0.01741,0.0314 -0.02962,0.0437 -0.0075,0.003 -0.01741,0.003 -0.02962,0 -0.01741,0.0121 -0.03714,0.0217 -0.05925,0.0292 -0.03714,0.006 -0.07664,0.0121 -0.118488,0.0146 -0.01246,0.0217 -0.02728,0.0412 -0.04444,0.0583 -0.01741,0.003 -0.03714,0.003 -0.05925,0 -0.0026,0.0363 -0.0075,0.0704 -0.0148,0.10199 -0.0075,0.0217 -0.01741,0.0412 -0.02962,0.0582 0.0023,0.0412 0.0023,0.08 0,0.11656 -0.0026,0.006 -0.0075,0.0121 -0.0148,0.0146 0.0023,0.11889 0.0023,0.23545 0,0.34972 0.02703,0.0509 0.05171,0.0995 0.07405,0.14572 0.0023,0.0121 0.0023,0.0218 0,0.0292 0.03196,0.0412 0.06158,0.08 0.08887,0.11657 0.0023,0.0218 0.0023,0.0412 0,0.0583 0.0221,0.0218 0.04185,0.0412 0.05925,0.0583 0.0023,0.0121 0.0023,0.0217 0,0.0292 0.01715,0.0168 0.03196,0.0315 0.04443,0.0437 0.0023,0.006 0.0023,0.0121 0,0.0146 0.0221,0.003 0.04184,0.003 0.05925,0 0.02702,0.0121 0.05173,0.0217 0.07405,0.0292 0.05173,0.003 0.101082,0.003 0.14811,0 0.125772,0.006 0.2492,0.0121 0.370281,0.0146 0.140581,-0.003 0.27882,-0.006 0.414708,-0.0146 0.03196,0.003 0.06158,0.003 0.08887,0 0.0023,-0.003 0.0023,-0.006 0,-0.0146 0.01715,0.003 0.03197,0.003 0.04443,0 0.0023,-0.003 0.0023,-0.006 0,-0.0146 0.01715,0.003 0.03197,0.003 0.04443,0 0.0073,-0.0122 0.01221,-0.0269 0.0148,-0.0437 0.0221,0.003 0.04185,0.003 0.05925,0 0.01715,-0.006 0.03197,-0.017 0.04443,-0.0292 0.01715,0.003 0.03197,0.003 0.04444,0 0.02702,-0.0122 0.05172,-0.0269 0.07405,-0.0437 0.02703,0.003 0.05173,0.003 0.07405,0 0.01223,-0.0122 0.0221,-0.0269 0.02962,-0.0437 0.0221,0.003 0.04184,0.003 0.05925,0 0.0023,-0.006 0.0023,-0.0171 0,-0.0292 0.01715,0.003 0.03197,0.003 0.04443,0 0.0023,-0.006 0.0023,-0.0171 0,-0.0292 0.01221,0.003 0.0221,0.003 0.02962,0 0.0073,-0.006 0.01221,-0.0171 0.0148,-0.0292 0.0073,0.003 0.01221,0.003 0.0148,0 0.0023,-0.0122 0.0023,-0.0269 0,-0.0437 0.01221,0.003 0.0221,0.003 0.02962,0 0.0073,-0.0122 0.01221,-0.0269 0.0148,-0.0437 0.01221,-0.003 0.0221,-0.006 0.02962,-0.0146 0.0023,-0.022 0.0023,-0.0462 0,-0.0728 0.01221,-0.0171 0.0221,-0.0365 0.02962,-0.0583 0.0023,-0.0753 0.0023,-0.15313 0,-0.23314 0.01715,-0.003 0.03196,-0.006 0.04443,-0.0146 0.0221,-0.0851 0.04184,-0.17254 0.05925,-0.26228 -0.0075,-0.003 -0.01741,-0.006 -0.02962,-0.0146 -0.03714,-0.0657 -0.07664,-0.13369 -0.118488,-0.204 -0.02234,-0.022 -0.04703,-0.0462 -0.07405,-0.0728 -0.01741,-0.0365 -0.03714,-0.0753 -0.05925,-0.11658 -0.09145,-0.0122 -0.185263,-0.0269 -0.281413,-0.0437 -0.02728,-0.006 -0.0569,-0.0171 -0.08887,-0.0292 -0.03715,0.003 -0.07664,0.003 -0.118491,0 -0.155637,-0.0269 -0.313624,-0.056 -0.473955,-0.0874 0.0023,0.0266 0.0023,0.0508 0,0.0728 -0.03221,-0.006 -0.06677,-0.0171 -0.103679,-0.0292 -0.0026,0.0121 -0.0075,0.0217 -0.0148,0.0292 -0.0026,0.0121 -0.0075,0.0218 -0.01481,0.0292" />
      <path
         style="fill:#0000f7;fill-opacity:1;stroke-width:0.0257636;stroke-linejoin:round;stroke-dasharray:0.0257636, 0.0257636"
         d="m 82.342089,210.28439 c -0.1861,-0.0121 -0.165186,0.005 -0.287213,-0.23388 l -0.08518,-0.16662 -0.0063,-0.16131 c -0.0086,-0.2213 0.01349,-0.35547 0.06527,-0.39641 0.02174,-0.0172 0.06363,-0.0352 0.09309,-0.0402 0.06103,-0.0106 0.141952,-0.0475 0.238716,-0.11028 0.121824,-0.0789 0.169149,-0.0984 0.315973,-0.12988 0.08011,-0.0172 0.155565,-0.0409 0.167685,-0.0529 0.01213,-0.0119 0.03541,-0.0217 0.05177,-0.0217 0.05936,0 0.554042,0.075 0.670393,0.10168 0.134234,0.0307 0.134988,0.0314 0.269329,0.23014 l 0.08148,0.12054 -0.02151,0.0761 c -0.01185,0.0418 -0.03187,0.10241 -0.04452,0.13447 -0.01265,0.032 -0.02344,0.0911 -0.024,0.13115 -0.0014,0.10485 -0.02588,0.19607 -0.06891,0.25751 -0.04232,0.0605 -0.125531,0.1039 -0.316668,0.16552 -0.06913,0.0223 -0.144164,0.0531 -0.166733,0.0686 -0.03728,0.0255 -0.07445,0.0285 -0.407306,0.0329 -0.20145,0.003 -0.437876,1.6e-4 -0.52539,-0.005 z"
         id="path898" />
      <path
         style="fill:#0000f7;fill-opacity:1;stroke-width:0.00455442;stroke-linejoin:round;stroke-dasharray:0.00455442, 0.00455442"
         d="m 81.96229,209.83653 c -0.0081,-0.0534 -0.01034,-0.0902 -0.01034,-0.17721 -1e-5,-0.0707 9.3e-4,-0.0925 0.0045,-0.11333 0.0025,-0.0142 0.006,-0.0467 0.008,-0.0724 0.0032,-0.0419 0.0046,-0.0498 0.01424,-0.0798 0.0059,-0.0184 0.01188,-0.0381 0.01333,-0.0438 0.0021,-0.007 0.0046,-0.0114 0.01117,-0.0145 0.0047,-0.003 0.01602,-0.01 0.02515,-0.0166 0.0092,-0.006 0.02003,-0.015 0.02422,-0.0181 0.0041,-0.003 0.01675,-0.007 0.02791,-0.01 0.04671,-0.01 0.07669,-0.0179 0.09955,-0.0262 0.01335,-0.005 0.02569,-0.008 0.02743,-0.007 0.0053,0.002 -0.04185,0.0174 -0.0805,0.0269 -0.04444,0.0107 -0.08258,0.0277 -0.102845,0.0458 -0.01784,0.0159 -0.03218,0.0445 -0.0426,0.0852 -0.0199,0.0776 -0.02477,0.18141 -0.01708,0.36442 0.0019,0.0461 0.0032,0.0841 0.0028,0.0844 -4.7e-4,4.6e-4 -0.0026,-0.0117 -0.0049,-0.0271 z"
         id="path900" />
      <path
         style="fill:#0000f7;fill-opacity:1;stroke-width:0.00455442;stroke-linejoin:round;stroke-dasharray:0.00455442, 0.00455442"
         d="m 82.558925,210.52877 c -0.03599,-8.8e-4 -0.113177,-0.004 -0.171498,-0.005 -0.147191,-0.004 -0.175808,-0.006 -0.2372,-0.0246 -0.01269,-0.004 -0.02745,-0.006 -0.03278,-0.006 -0.0135,0 -0.04608,-0.005 -0.05845,-0.0116 -0.01722,-0.006 -0.03886,-0.0232 -0.04912,-0.0364 -0.0053,-0.006 -0.01807,-0.023 -0.02829,-0.0357 -0.01023,-0.0128 -0.02321,-0.0326 -0.02889,-0.0439 -0.0057,-0.0114 -0.01737,-0.0299 -0.02604,-0.0412 -0.02025,-0.0263 -0.03153,-0.0478 -0.04173,-0.0795 -0.01023,-0.0315 -0.01058,-0.0323 -0.04249,-0.0796 -0.0288,-0.0427 -0.03752,-0.0584 -0.04743,-0.0856 -0.0036,-0.01 -0.01248,-0.0326 -0.01969,-0.0502 -0.04665,-0.11493 -0.06041,-0.21047 -0.05731,-0.39786 9.3e-4,-0.0631 0.0027,-0.0972 0.0055,-0.11348 0.0021,-0.0128 0.0053,-0.0405 0.0068,-0.0618 0.0039,-0.0533 0.0085,-0.0798 0.02059,-0.1172 0.0057,-0.0177 0.01399,-0.0461 0.01842,-0.0631 0.01211,-0.0466 0.02715,-0.0748 0.0536,-0.10052 0.0168,-0.0163 0.02617,-0.0231 0.0448,-0.032 0.01296,-0.005 0.02969,-0.0163 0.03714,-0.0222 0.03472,-0.0276 0.06887,-0.042 0.136959,-0.0577 0.05564,-0.0128 0.09199,-0.0257 0.107347,-0.0382 0.02014,-0.0165 0.03619,-0.0262 0.07165,-0.0435 0.02347,-0.0114 0.04294,-0.0233 0.06182,-0.0379 0.04493,-0.0345 0.06269,-0.045 0.09171,-0.0544 0.0079,-0.003 0.02501,-0.0106 0.03797,-0.0168 0.02943,-0.0153 0.04481,-0.02 0.122499,-0.0371 l 0.06228,-0.0137 0.01496,-0.0158 c 0.01724,-0.0181 0.03908,-0.0316 0.0634,-0.0394 0.01321,-0.004 0.02465,-0.005 0.05106,-0.005 0.02725,-4.7e-4 0.03582,-0.002 0.04297,-0.005 0.01564,-0.007 0.03748,-0.0146 0.06306,-0.0184 0.05739,-0.008 0.112025,-0.004 0.319938,0.0285 0.111919,0.0174 0.144316,0.0217 0.212879,0.0283 0.05023,0.005 0.06032,0.005 0.117822,0.0194 0.02449,0.005 0.06925,0.0148 0.0995,0.0205 0.101198,0.0194 0.150775,0.0328 0.193834,0.0527 0.05982,0.0274 0.09798,0.0605 0.141445,0.12248 0.0085,0.0121 0.02428,0.0328 0.03522,0.0464 0.04338,0.0535 0.05678,0.0725 0.105996,0.15069 0.01693,0.027 0.03967,0.0616 0.05052,0.0772 0.04881,0.0701 0.05578,0.10601 0.03851,0.19833 -0.01633,0.0873 -0.03976,0.16667 -0.0617,0.2089 -0.0073,0.014 -0.01429,0.0308 -0.01555,0.0374 -0.0011,0.005 -0.0041,0.043 -0.0065,0.0812 -0.0047,0.0773 -0.0084,0.10631 -0.01849,0.14405 -0.0037,0.0142 -0.009,0.0403 -0.01175,0.0581 -0.0068,0.0458 -0.01804,0.0728 -0.04029,0.0972 -0.0048,0.005 -0.01117,0.0143 -0.01413,0.0201 -0.0031,0.005 -0.01046,0.0168 -0.0167,0.0246 -0.0062,0.007 -0.0147,0.0205 -0.01889,0.0283 -0.0052,0.01 -0.0168,0.0232 -0.03665,0.042 -0.05026,0.0478 -0.06012,0.0559 -0.08161,0.0666 -0.0073,0.004 -0.01475,0.008 -0.01661,0.0106 -0.0061,0.006 -0.03527,0.0217 -0.0526,0.026 -0.01,0.003 -0.02297,0.008 -0.03141,0.014 -0.02906,0.0197 -0.04639,0.0264 -0.08731,0.0337 -0.02177,0.004 -0.03545,0.007 -0.05646,0.0177 -0.03038,0.0139 -0.05304,0.0218 -0.07101,0.0248 -0.0065,8.7e-4 -0.02051,0.005 -0.03131,0.0106 -0.01082,0.004 -0.02672,0.0106 -0.03536,0.0129 -0.01128,0.004 -0.0194,0.007 -0.02896,0.0163 -0.01188,0.0106 -0.04386,0.0286 -0.05093,0.0286 -0.0014,0 -0.0084,0.003 -0.01522,0.005 -0.0068,0.004 -0.01946,0.007 -0.02806,0.0106 -0.0086,0.003 -0.02444,0.006 -0.03525,0.0108 -0.02186,0.006 -0.03589,0.007 -0.221243,0.0138 -0.121734,0.004 -0.421104,0.005 -0.505325,0.003 z m 0.484378,-0.23073 0.164949,-0.004 0.02979,-0.01 c 0.0237,-0.006 0.032,-0.0113 0.04058,-0.0191 0.02292,-0.0208 0.05041,-0.0344 0.08411,-0.0416 0.01011,-0.002 0.0284,-0.007 0.0407,-0.0129 0.01232,-0.005 0.03248,-0.0115 0.04481,-0.0144 0.01234,-0.003 0.03352,-0.0106 0.04707,-0.0166 0.03023,-0.0139 0.05176,-0.0209 0.08081,-0.0266 0.01713,-0.004 0.02492,-0.005 0.03381,-0.013 0.01309,-0.01 0.02953,-0.0184 0.04867,-0.0251 0.0072,-0.003 0.01664,-0.006 0.02095,-0.0106 0.0044,-0.004 0.0114,-0.007 0.01572,-0.01 0.0044,-0.003 0.01598,-0.0106 0.02588,-0.0182 0.01406,-0.0111 0.01983,-0.0178 0.02618,-0.0305 0.0048,-0.01 0.01501,-0.0231 0.02489,-0.0329 0.02398,-0.024 0.03343,-0.0394 0.03561,-0.0576 9.3e-4,-0.008 0.0059,-0.0308 0.01069,-0.05 0.0092,-0.0356 0.0098,-0.0412 0.01692,-0.15123 0.0048,-0.0736 0.01225,-0.10506 0.03566,-0.15038 0.01945,-0.0377 0.03228,-0.0798 0.04663,-0.15325 l 0.006,-0.0306 -0.01117,-0.0158 c -0.0061,-0.008 -0.02676,-0.0407 -0.04586,-0.0712 -0.04249,-0.0679 -0.06077,-0.0942 -0.09392,-0.13498 -0.01413,-0.0175 -0.03349,-0.0427 -0.04304,-0.0562 -0.0095,-0.0135 -0.0212,-0.0282 -0.02593,-0.0329 -0.01846,-0.0182 -0.05881,-0.0306 -0.166457,-0.0516 -0.03577,-0.006 -0.08558,-0.0172 -0.110674,-0.0229 -0.0251,-0.005 -0.05977,-0.0115 -0.07705,-0.0131 -0.06651,-0.005 -0.124211,-0.0136 -0.226495,-0.0295 -0.1358,-0.0212 -0.179785,-0.0271 -0.218609,-0.0289 l -0.03142,-0.002 -0.01572,0.01 c -0.0086,0.005 -0.01838,0.01 -0.0216,0.0109 -0.0046,8.9e-4 -0.0059,0.004 -0.0059,0.01 0,0.007 -0.0011,0.008 -0.01117,0.0129 -0.0061,0.003 -0.07475,0.0182 -0.152513,0.0352 l -0.141387,0.0308 -0.02226,0.0125 c -0.01225,0.006 -0.02932,0.0146 -0.03797,0.0171 -0.01176,0.004 -0.02262,0.01 -0.0432,0.0256 -0.03457,0.0264 -0.04881,0.0353 -0.08634,0.0537 -0.0216,0.0106 -0.03523,0.0194 -0.04844,0.0313 -0.01958,0.0176 -0.04919,0.0338 -0.07468,0.0404 -0.0079,0.002 -0.02796,0.008 -0.04451,0.014 -0.01656,0.005 -0.04483,0.0133 -0.06284,0.0171 -0.0457,0.01 -0.04915,0.0109 -0.06625,0.0249 -0.0084,0.006 -0.0222,0.0166 -0.03076,0.0219 -0.01336,0.007 -0.01595,0.011 -0.01828,0.0201 -0.0014,0.005 -0.0074,0.0257 -0.0133,0.044 -0.0095,0.0299 -0.01105,0.0383 -0.0142,0.0798 -0.0019,0.0255 -0.0057,0.0585 -0.008,0.0734 -0.0034,0.0212 -0.0045,0.0448 -0.0045,0.10948 -7.9e-5,0.13805 0.0084,0.20296 0.03497,0.27093 0.006,0.0153 0.01546,0.0397 0.021,0.054 0.0073,0.0188 0.01718,0.0368 0.03563,0.0643 0.03109,0.0464 0.05054,0.0833 0.05967,0.11265 0.0057,0.0181 0.01023,0.0265 0.02507,0.046 0.01,0.0131 0.02248,0.0326 0.02769,0.0432 l 0.0094,0.0192 0.04595,0.0114 c 0.04253,0.0106 0.04969,0.0115 0.09589,0.0138 0.210968,0.01 0.49207,0.012 0.738531,0.005 z"
         id="path902" />
      <path
         style="fill:#0000f7;fill-opacity:1;stroke-width:0.00455442;stroke-linejoin:round;stroke-dasharray:0.00455442, 0.00455442"
         d="m 82.434073,210.28683 c -0.08654,-0.003 -0.184823,-0.008 -0.209418,-0.014 -0.02698,-0.005 -0.04345,-0.0146 -0.06082,-0.0332 -0.02203,-0.0237 -0.03463,-0.0461 -0.117822,-0.20883 l -0.07502,-0.14683 -0.0034,-0.0798 c -0.0041,-0.0992 -0.0046,-0.23518 -9.3e-4,-0.28024 0.0084,-0.10083 0.02795,-0.1642 0.0595,-0.19258 0.01838,-0.0165 0.0557,-0.0345 0.08602,-0.0414 0.08503,-0.0194 0.138057,-0.0438 0.259022,-0.1196 0.113542,-0.0711 0.157249,-0.0892 0.289234,-0.11966 0.107922,-0.025 0.161512,-0.0414 0.181067,-0.0554 0.02004,-0.0145 0.03932,-0.0218 0.05719,-0.0218 0.06359,3e-5 0.537058,0.0718 0.671585,0.10199 0.126283,0.0282 0.13178,0.033 0.274122,0.243 0.06418,0.0947 0.07045,0.10485 0.06904,0.11232 -0.0037,0.0198 -0.03228,0.11348 -0.0525,0.17255 -0.02599,0.0761 -0.0318,0.10411 -0.03539,0.1715 -0.0031,0.0559 -0.0058,0.0779 -0.01478,0.11808 -0.01621,0.0719 -0.04395,0.12575 -0.08376,0.16233 -0.04661,0.0427 -0.119547,0.0768 -0.282415,0.13155 -0.07864,0.0265 -0.138762,0.0508 -0.168686,0.0684 -0.03139,0.0184 -0.05024,0.0226 -0.120633,0.0269 -0.112142,0.006 -0.546571,0.01 -0.721328,0.005 z"
         id="path906" />
      <path
         style="fill:#0000f7;fill-opacity:1;stroke-width:0.00455442;stroke-linejoin:round;stroke-dasharray:0.00455442, 0.00455442"
         d="m 82.449781,210.52533 c -0.196061,-0.005 -0.228269,-0.008 -0.285391,-0.0232 -0.01871,-0.004 -0.04438,-0.01 -0.05701,-0.0115 -0.03308,-0.004 -0.05397,-0.0113 -0.07234,-0.0247 -0.01945,-0.014 -0.05508,-0.0574 -0.07528,-0.0914 -0.008,-0.0134 -0.02248,-0.036 -0.03223,-0.0503 -0.02222,-0.0323 -0.0313,-0.05 -0.04356,-0.085 -0.0076,-0.0217 -0.01492,-0.0357 -0.03402,-0.0647 -0.03772,-0.0574 -0.04351,-0.0684 -0.06457,-0.12216 -0.04573,-0.11669 -0.05812,-0.17225 -0.06498,-0.29108 -0.0036,-0.0631 -0.0014,-0.20015 0.0041,-0.2444 0.0021,-0.0165 0.0055,-0.0495 0.0077,-0.0735 0.0047,-0.0499 0.0085,-0.0697 0.02095,-0.11035 0.0048,-0.0159 0.01261,-0.0422 0.01718,-0.0585 0.0191,-0.0682 0.04386,-0.10104 0.09985,-0.13228 0.01341,-0.007 0.03207,-0.0192 0.04144,-0.026 0.03179,-0.023 0.0672,-0.0376 0.125678,-0.0516 0.06894,-0.0165 0.09297,-0.0257 0.121943,-0.0469 0.0114,-0.008 0.03764,-0.0238 0.05823,-0.0345 0.02304,-0.0119 0.05068,-0.029 0.07197,-0.0445 0.03994,-0.0293 0.05455,-0.038 0.07873,-0.047 0.0096,-0.004 0.02657,-0.011 0.0377,-0.0165 0.03232,-0.0159 0.05522,-0.023 0.126009,-0.0389 l 0.0665,-0.0149 0.01,-0.0115 c 0.01297,-0.0148 0.04134,-0.0337 0.06122,-0.0408 0.01163,-0.004 0.02539,-0.005 0.05295,-0.007 0.03293,-0.002 0.03945,-0.003 0.05629,-0.01 0.01046,-0.004 0.02877,-0.01 0.04066,-0.0117 0.06266,-0.0116 0.105525,-0.008 0.327922,0.0252 0.128093,0.0195 0.13282,0.02 0.213387,0.0287 0.03754,0.004 0.07845,0.0106 0.108653,0.0169 0.02665,0.005 0.0773,0.0161 0.112589,0.0232 0.11098,0.0222 0.150275,0.033 0.19521,0.0539 0.05378,0.0248 0.09185,0.0565 0.130926,0.10927 0.0114,0.0154 0.03373,0.0444 0.04956,0.0643 0.02849,0.0361 0.06475,0.0886 0.120462,0.17429 0.05424,0.0836 0.06078,0.0948 0.06844,0.11781 0.0067,0.0203 0.0074,0.0258 0.0074,0.0572 -1.08e-4,0.0373 -0.0028,0.0553 -0.01853,0.12492 -0.01499,0.0662 -0.02925,0.10884 -0.05689,0.17004 l -0.0093,0.0205 -0.0055,0.077 c -0.0063,0.0891 -0.0082,0.10443 -0.01844,0.14832 -0.0041,0.0177 -0.0095,0.0438 -0.01188,0.058 -0.0065,0.0381 -0.01529,0.0633 -0.02871,0.0817 -0.0063,0.008 -0.02539,0.0364 -0.04221,0.0611 -0.02635,0.0388 -0.03516,0.0494 -0.06353,0.0768 -0.03462,0.0333 -0.0572,0.0516 -0.07477,0.0604 -0.0058,0.003 -0.01394,0.007 -0.01809,0.0114 -0.01011,0.008 -0.02528,0.0157 -0.04738,0.0231 -0.01011,0.004 -0.0278,0.0118 -0.03932,0.0187 -0.02653,0.016 -0.04087,0.0215 -0.0735,0.0283 -0.03476,0.006 -0.03671,0.007 -0.07335,0.023 -0.01741,0.006 -0.04216,0.016 -0.05498,0.0195 -0.01282,0.004 -0.03592,0.011 -0.05131,0.0168 -0.01539,0.005 -0.02916,0.0106 -0.03061,0.0106 -0.0014,0 -0.01011,0.005 -0.01914,0.0124 -0.02956,0.0222 -0.05678,0.0346 -0.116963,0.0531 -0.03433,0.0106 -0.05451,0.0125 -0.184949,0.017 -0.128557,0.004 -0.538658,0.005 -0.665039,8.8e-4 z m 0.665039,-0.22794 0.09426,-0.003 0.02817,-0.01 c 0.02259,-0.006 0.0317,-0.0119 0.04607,-0.023 0.02423,-0.0186 0.04282,-0.0274 0.08139,-0.0385 0.0179,-0.005 0.03452,-0.0106 0.03694,-0.0116 0.0023,-8.7e-4 0.01958,-0.006 0.03812,-0.0124 0.01858,-0.005 0.04803,-0.016 0.06547,-0.0233 0.01744,-0.006 0.04454,-0.0162 0.06023,-0.0199 0.02262,-0.005 0.03292,-0.01 0.04984,-0.0194 0.01176,-0.006 0.0294,-0.0161 0.03927,-0.0201 0.04006,-0.0163 0.07875,-0.0456 0.09461,-0.0716 0.0059,-0.01 0.01813,-0.0256 0.02734,-0.0357 0.02401,-0.0261 0.02722,-0.0325 0.03485,-0.0681 0.0037,-0.0176 0.0085,-0.0383 0.01046,-0.0462 0.005,-0.0198 0.0082,-0.0486 0.01304,-0.11715 0.0071,-0.10136 0.01058,-0.11775 0.03808,-0.17652 0.0191,-0.0408 0.02877,-0.0716 0.04162,-0.13255 l 0.01023,-0.0486 -0.01499,-0.0221 c -0.0082,-0.0122 -0.03143,-0.048 -0.05151,-0.0796 -0.03343,-0.0527 -0.128458,-0.18198 -0.152332,-0.20731 -0.01668,-0.0177 -0.04577,-0.0285 -0.118786,-0.0441 -0.143673,-0.0308 -0.210381,-0.0432 -0.265474,-0.0492 -0.06742,-0.006 -0.08238,-0.01 -0.216006,-0.0295 -0.132104,-0.0199 -0.15426,-0.0228 -0.196372,-0.0255 l -0.03535,-0.003 -0.01701,0.01 c -0.0094,0.005 -0.01905,0.0106 -0.02151,0.0112 -0.0025,8.6e-4 -0.0053,0.005 -0.0062,0.008 -9.3e-4,0.004 -0.003,0.008 -0.0044,0.0106 -0.0014,0.002 -0.0019,0.004 -7.05e-4,0.004 0.0034,0 0.01853,-0.008 0.02377,-0.013 0.003,-0.003 0.0122,-0.007 0.0207,-0.0117 0.01461,-0.006 0.01692,-0.006 0.0432,-0.005 0.110438,0.005 0.606571,0.0852 0.705884,0.11263 0.05952,0.0164 0.08727,0.0366 0.132908,0.0965 0.02848,0.0373 0.164264,0.23762 0.164264,0.24223 0,0.007 -0.03339,0.11817 -0.05391,0.17847 -0.02584,0.0761 -0.03152,0.10379 -0.03517,0.17196 -0.0037,0.0715 -0.01258,0.12173 -0.02929,0.16832 -0.04013,0.11192 -0.101034,0.15642 -0.313658,0.22917 -0.128815,0.044 -0.166867,0.0592 -0.207479,0.0821 -0.0126,0.006 -0.03026,0.0148 -0.03927,0.0169 -0.04284,0.0106 -0.141429,0.0142 -0.44185,0.0163 -0.238879,0.002 -0.388337,-8.7e-4 -0.494668,-0.007 -0.08801,-0.005 -0.10864,-0.0122 -0.134871,-0.0401 -0.02168,-0.023 -0.03878,-0.0533 -0.119615,-0.21183 -0.04035,-0.0791 -0.07386,-0.14336 -0.07445,-0.14276 -0.0025,0.003 0.03068,0.0906 0.04436,0.11789 0.0046,0.01 0.01713,0.0302 0.02782,0.0463 0.02419,0.0369 0.0451,0.0761 0.05518,0.10316 0.0094,0.0253 0.01402,0.0339 0.0328,0.0604 0.008,0.0113 0.01856,0.0285 0.02341,0.0377 l 0.0088,0.0171 0.04396,0.0106 c 0.05678,0.0136 0.09116,0.0159 0.34114,0.0219 0.06901,0.002 0.477015,-8.7e-4 0.566852,-0.004 z m -1.147235,-0.49142 c -0.0039,-0.0979 -0.0043,-0.24064 -7.04e-4,-0.28323 0.0055,-0.0666 0.01804,-0.12388 0.03455,-0.15791 0.01696,-0.0349 0.0585,-0.0631 0.110933,-0.075 0.08141,-0.0184 0.142929,-0.0465 0.249332,-0.11361 0.08782,-0.0553 0.124682,-0.0746 0.179788,-0.0939 0.01729,-0.005 0.03006,-0.0111 0.0284,-0.0111 -0.0065,-2.3e-4 -0.05861,0.0191 -0.08599,0.0319 -0.01584,0.007 -0.04105,0.0206 -0.056,0.0294 -0.01496,0.008 -0.02761,0.0155 -0.0281,0.015 -0.0026,-0.003 0.04687,-0.0372 0.06055,-0.0424 0.02145,-0.007 0.03714,-0.0153 0.05061,-0.023 0.02008,-0.0114 0.0099,-0.01 -0.01553,0.004 -0.01354,0.006 -0.03036,0.0145 -0.0374,0.0171 -0.0071,0.003 -0.02236,0.0121 -0.03404,0.0207 -0.0322,0.024 -0.04957,0.035 -0.08509,0.054 -0.01785,0.01 -0.04185,0.0246 -0.05333,0.0336 -0.01152,0.01 -0.02796,0.0202 -0.03663,0.0248 -0.01958,0.0106 -0.10663,0.0378 -0.15397,0.0486 -0.0381,0.008 -0.03781,0.008 -0.07709,0.0371 l -0.02617,0.0189 -0.0099,0.0319 c -0.01421,0.0458 -0.01698,0.059 -0.02013,0.0951 -0.0017,0.0177 -0.0048,0.0472 -0.0074,0.0657 -0.0065,0.0474 -0.0062,0.21723 4.69e-4,0.27177 0.0049,0.0414 0.0122,0.0772 0.0155,0.0772 2.34e-4,0 -9.3e-4,-0.0345 -0.0026,-0.0766 z m 0.668989,-0.75678 c 0.0554,-0.0121 0.102022,-0.0215 0.103597,-0.0208 0.0017,7.1e-4 7.04e-4,8.8e-4 -0.0021,0.002 -0.0027,1.2e-4 -0.0044,8.8e-4 -0.0035,0.002 0.0019,0.002 0.05992,-0.0149 0.07529,-0.0219 0.0065,-0.003 0.0094,-0.004 0.0066,-0.004 -0.05238,0.0123 -0.08781,0.0203 -0.176537,0.0399 -0.09289,0.0204 -0.115011,0.0259 -0.106183,0.0259 0.0011,0 0.04756,-0.01 0.102962,-0.022 z m -0.05066,0.0194 c 0.0033,-0.002 0.0037,-0.003 0.0014,-0.003 -0.0021,0 -0.0063,8.8e-4 -0.0092,0.003 -0.0033,0.002 -0.0037,0.003 -0.0014,0.003 0.0021,0 0.0063,-8.8e-4 0.0092,-0.003 z m 0.0288,-0.007 c 0.01011,-0.003 0.01413,-0.004 0.0089,-0.004 -0.01023,0.002 -0.03416,0.008 -0.02993,0.008 0.0014,1e-4 0.01082,-0.002 0.02095,-0.005 z m 0.03927,-0.008 c 0.0072,-0.002 0.01128,-0.004 0.0092,-0.004 -0.0021,-9e-5 -0.0099,0.002 -0.01701,0.004 -0.0072,0.002 -0.01129,0.004 -0.0092,0.004 0.0021,1.2e-4 0.0099,-0.002 0.01701,-0.004 z m 0.03404,-0.007 c 0.0072,-0.002 0.01129,-0.004 0.0092,-0.004 -0.0021,-9e-5 -0.0099,0.002 -0.01704,0.004 -0.0072,0.002 -0.01128,0.004 -0.0092,0.004 0.0021,1e-4 0.0099,-0.002 0.01701,-0.004 z m 0.02156,-0.005 c -9.3e-4,-8.7e-4 -0.0031,-8.7e-4 -0.005,-1.9e-4 -0.0021,8.6e-4 -0.0014,0.002 0.0017,0.002 0.0027,1.1e-4 0.0044,-4.6e-4 0.0034,-0.002 z m 0.01046,-0.003 c -9.3e-4,-8.7e-4 -0.0031,-8.7e-4 -0.005,-2e-4 -0.0021,8.7e-4 -0.0014,0.002 0.0017,0.002 0.0027,1e-4 0.0044,-4.7e-4 0.0034,-0.002 z m 0.01046,-0.003 c -9.3e-4,-8.7e-4 -0.0031,-8.7e-4 -0.005,-2e-4 -0.0021,8.6e-4 -0.0014,0.002 0.0017,0.002 0.0027,1.1e-4 0.0043,-4.6e-4 0.0034,-0.002 z"
         id="path908" />
      <path
         style="fill:#0000f7;fill-opacity:1;stroke-width:0.00455442;stroke-linejoin:round;stroke-dasharray:0.00455442, 0.00455442"
         d="m 82.538801,210.52765 c -0.01152,-4.7e-4 -0.06453,-0.002 -0.117822,-0.004 -0.163461,-0.004 -0.201034,-0.007 -0.262951,-0.023 -0.01666,-0.004 -0.04018,-0.008 -0.05225,-0.0106 -0.03218,-0.004 -0.05276,-0.0115 -0.07031,-0.0242 -0.02163,-0.0158 -0.05656,-0.0583 -0.07923,-0.0969 -0.0062,-0.0106 -0.01925,-0.031 -0.02891,-0.0452 -0.02123,-0.0312 -0.03076,-0.0494 -0.04137,-0.079 -0.01058,-0.0296 -0.01499,-0.0379 -0.04359,-0.0819 -0.03042,-0.0469 -0.03714,-0.0601 -0.05901,-0.11592 -0.04364,-0.11145 -0.05591,-0.16684 -0.06299,-0.28488 -0.0033,-0.0551 -0.0017,-0.1931 0.0028,-0.23418 0.0014,-0.0128 0.0049,-0.047 0.0079,-0.0761 0.003,-0.0291 0.0071,-0.0605 0.0089,-0.0697 0.0063,-0.0298 0.03851,-0.13698 0.04625,-0.15393 0.01684,-0.0369 0.04098,-0.062 0.08201,-0.0853 0.01286,-0.006 0.03231,-0.0194 0.0432,-0.027 0.03569,-0.0248 0.06292,-0.0359 0.125852,-0.0515 0.07101,-0.0177 0.09323,-0.0263 0.123058,-0.0478 0.0094,-0.006 0.03292,-0.0206 0.05237,-0.0309 0.01945,-0.0106 0.04802,-0.0274 0.06353,-0.0383 0.01548,-0.0108 0.03611,-0.0251 0.04582,-0.0318 0.0098,-0.006 0.02649,-0.0158 0.03728,-0.0202 0.01082,-0.004 0.03318,-0.0141 0.04975,-0.0217 0.03798,-0.0173 0.05254,-0.0218 0.128015,-0.0385 l 0.06126,-0.0138 0.01,-0.0115 c 0.01305,-0.015 0.04145,-0.0339 0.06123,-0.0407 0.01105,-0.004 0.02672,-0.005 0.05297,-0.007 0.03173,-0.002 0.04015,-0.004 0.05667,-0.01 0.03124,-0.0122 0.06019,-0.0167 0.106372,-0.0166 0.05125,5e-5 0.109898,0.006 0.270989,0.0317 0.07948,0.0122 0.139678,0.0203 0.203635,0.0273 0.05618,0.005 0.13713,0.0214 0.289908,0.0543 0.105185,0.0227 0.166613,0.0512 0.216017,0.10009 0.01152,0.0114 0.04576,0.0532 0.07606,0.0929 0.06373,0.0834 0.06265,0.0819 0.121891,0.17293 0.06956,0.10696 0.07449,0.11525 0.08255,0.13949 0.007,0.0207 0.0074,0.0252 0.0072,0.0598 -2.34e-4,0.0309 -0.0017,0.0445 -0.0087,0.0786 -0.01732,0.0854 -0.03485,0.1432 -0.06137,0.20233 l -0.01438,0.0321 -0.0055,0.077 c -0.0063,0.0898 -0.0077,0.1 -0.01972,0.15484 -0.0049,0.0228 -0.01128,0.0527 -0.01407,0.0671 -0.0066,0.0333 -0.01376,0.0517 -0.02766,0.0703 -0.0062,0.007 -0.02384,0.0334 -0.03925,0.056 -0.03513,0.0513 -0.04074,0.0578 -0.08072,0.0938 -0.02881,0.026 -0.04212,0.0356 -0.08785,0.0636 -0.0062,0.004 -0.02189,0.0107 -0.03491,0.0156 -0.01301,0.004 -0.03212,0.0139 -0.04244,0.0202 -0.02395,0.0147 -0.03877,0.0202 -0.0712,0.0271 -0.03312,0.006 -0.03802,0.008 -0.07455,0.0236 -0.01656,0.006 -0.03953,0.0149 -0.05106,0.018 -0.02289,0.005 -0.08029,0.0262 -0.08961,0.0314 -0.0032,0.002 -0.01482,0.01 -0.02583,0.0171 -0.02238,0.0155 -0.05971,0.0316 -0.105008,0.0453 -0.03527,0.0106 -0.05708,0.0127 -0.180146,0.0169 -0.07432,0.003 -0.536474,0.005 -0.581255,0.004 z m 0.568165,-0.23042 0.102115,-0.003 0.02796,-0.01 c 0.02158,-0.006 0.0321,-0.0124 0.04614,-0.0229 0.02302,-0.0172 0.04418,-0.0277 0.07175,-0.0357 0.03833,-0.011 0.130993,-0.0421 0.153426,-0.0516 0.01197,-0.005 0.0372,-0.0132 0.05611,-0.0184 0.02614,-0.006 0.03882,-0.0119 0.05295,-0.0205 0.01023,-0.005 0.0268,-0.0148 0.03684,-0.0188 0.03948,-0.016 0.07457,-0.0427 0.09396,-0.0714 0.0077,-0.0113 0.0213,-0.0287 0.03026,-0.0386 0.0089,-0.01 0.0186,-0.0224 0.02142,-0.0278 0.0062,-0.0119 0.02456,-0.0928 0.02831,-0.12451 0.0014,-0.0126 0.0045,-0.0483 0.0067,-0.0795 0.0065,-0.0914 0.01202,-0.11883 0.03315,-0.16347 0.02391,-0.0506 0.03238,-0.077 0.04775,-0.14927 l 0.0089,-0.0418 -0.02266,-0.0345 c -0.01248,-0.0189 -0.03621,-0.0554 -0.05278,-0.0812 -0.03526,-0.0546 -0.135767,-0.18817 -0.150706,-0.2003 -0.02062,-0.0167 -0.05338,-0.0261 -0.187049,-0.0534 -0.116445,-0.0238 -0.128997,-0.0261 -0.16947,-0.0308 -0.07728,-0.008 -0.139492,-0.0174 -0.236361,-0.0321 -0.121736,-0.0184 -0.15333,-0.0225 -0.197679,-0.0256 l -0.03405,-0.003 -0.01701,0.01 c -0.0094,0.005 -0.01905,0.0106 -0.02151,0.0112 -0.0025,8.6e-4 -0.0053,0.005 -0.0062,0.008 -9.3e-4,0.004 -0.003,0.008 -0.0044,0.0106 -0.0048,0.005 0.0026,0.004 0.01678,-0.005 0.02483,-0.0166 0.03819,-0.0216 0.05851,-0.0216 0.05177,-1e-5 0.379224,0.0477 0.591728,0.0861 0.066,0.012 0.133857,0.0278 0.158785,0.0372 0.03352,0.0126 0.06359,0.0382 0.09839,0.0839 0.02966,0.0391 0.16567,0.24006 0.16567,0.24493 0,0.007 -0.02903,0.10517 -0.0513,0.17177 -0.02619,0.0783 -0.03155,0.10136 -0.03518,0.15131 -0.0092,0.12682 -0.02023,0.17915 -0.04982,0.23738 -0.04362,0.0858 -0.106231,0.12378 -0.326791,0.1983 -0.07884,0.0266 -0.122215,0.0439 -0.167917,0.0671 -0.04625,0.0234 -0.05592,0.0257 -0.121751,0.0303 -0.117848,0.007 -0.672431,0.0106 -0.799877,0.003 -0.148732,-0.008 -0.167708,-0.0127 -0.198114,-0.0449 -0.02158,-0.0229 -0.03351,-0.0439 -0.116598,-0.20638 -0.04056,-0.0793 -0.07418,-0.14283 -0.07474,-0.14121 -0.0011,0.004 0.03134,0.0896 0.04154,0.10953 0.0041,0.007 0.01802,0.0313 0.03077,0.0516 0.0272,0.0431 0.04395,0.0751 0.05423,0.10358 0.0047,0.0129 0.01482,0.0316 0.02746,0.0503 0.01105,0.0163 0.0237,0.0368 0.02817,0.0455 l 0.0081,0.0158 0.0387,0.01 c 0.02128,0.005 0.04813,0.0106 0.05965,0.0117 0.08975,0.0114 0.543452,0.0157 0.845698,0.007 z m -1.140113,-0.50868 c -0.0037,-0.0931 -0.0037,-0.22414 -1.05e-4,-0.26664 0.006,-0.069 0.0182,-0.12403 0.0354,-0.15878 0.01846,-0.0372 0.0552,-0.0599 0.1269,-0.078 0.07792,-0.0196 0.125746,-0.0425 0.242873,-0.11569 0.0807,-0.0505 0.124115,-0.0725 0.179276,-0.0908 0.0096,-0.004 0.01713,-0.005 0.01654,-0.006 -0.0039,-0.004 -0.08035,0.0273 -0.120121,0.0489 -0.01561,0.008 -0.02889,0.0148 -0.02951,0.0142 -0.0023,-0.003 0.0359,-0.0254 0.05667,-0.0341 0.02503,-0.0106 0.04701,-0.0222 0.04701,-0.0251 0,-8.7e-4 -0.0092,0.003 -0.0204,0.007 -0.01128,0.005 -0.02792,0.0131 -0.03708,0.0167 -0.0092,0.004 -0.02502,0.0128 -0.03522,0.0201 -0.03664,0.0264 -0.0583,0.0403 -0.08794,0.0561 -0.01656,0.008 -0.04171,0.0247 -0.05589,0.0352 -0.01416,0.0106 -0.03245,0.0224 -0.04058,0.0264 -0.01932,0.01 -0.09792,0.0342 -0.140761,0.0442 -0.04886,0.0114 -0.04129,0.007 -0.104631,0.0529 -0.0071,0.005 -0.0094,0.0106 -0.01891,0.0427 -0.01394,0.0473 -0.01528,0.0538 -0.01875,0.091 -0.0017,0.017 -0.0048,0.0465 -0.0073,0.0657 -0.0034,0.0272 -0.0044,0.0555 -0.0043,0.13008 1.56e-4,0.10072 0.0026,0.13856 0.01211,0.18677 0.0077,0.0394 0.0085,0.0303 0.0047,-0.0632 z m 0.620708,-0.72769 c 0.05027,-0.0108 0.05895,-0.0121 0.05205,-0.007 -0.0045,0.003 0.01046,7.1e-4 0.01964,-0.003 0.0048,-0.002 0.0047,-0.002 -0.0014,-0.003 -0.0062,-4.6e-4 -0.0061,-6.9e-4 0.0014,-0.003 0.0044,-8.8e-4 0.01023,-0.002 0.01308,-0.003 0.0045,-2.3e-4 0.0046,1.8e-4 0.0014,0.003 -0.0034,0.003 -0.0033,0.003 4.7e-4,0.002 0.0023,-6.9e-4 0.0088,-0.003 0.01435,-0.004 0.0085,-0.002 0.0092,-0.002 0.0048,-0.004 -0.0034,-0.002 -0.0014,-0.002 0.0066,-8.7e-4 0.0088,8.7e-4 0.01046,6.8e-4 0.0066,-0.002 -0.0039,-0.002 -0.0027,-0.002 0.0053,-8.7e-4 0.008,8.7e-4 0.0095,6.9e-4 0.0066,-0.002 -0.0031,-0.002 -0.0019,-0.003 0.0048,-8.7e-4 0.0052,8.7e-4 0.0082,6.8e-4 0.0074,-7e-4 -7.04e-4,-0.002 0.0023,-0.003 0.007,-0.003 0.0074,-2.3e-4 0.04203,-0.01 0.06674,-0.0188 0.01781,-0.005 0.0054,-0.005 -0.03115,0.004 -0.02074,0.005 -0.08014,0.0183 -0.131969,0.0296 -0.09774,0.0217 -0.113036,0.0254 -0.105501,0.0257 0.0025,1.3e-4 0.02593,-0.004 0.05215,-0.0106 z m -0.0042,0.007 c 0.0034,-0.002 0.0039,-0.003 0.0014,-0.003 -0.0021,-7e-5 -0.0057,8.7e-4 -0.0079,0.003 -0.0048,0.003 -7.03e-4,0.003 0.0066,0 z m 0.0288,-0.007 c 0.0086,-0.003 0.01217,-0.004 0.0079,-0.004 -0.01286,0.003 -0.02749,0.005 -0.02749,0.007 0,0.002 0.0033,0.002 0.01963,-0.004 z"
         id="path910" />
      <path
         style="fill:#0000f7;fill-opacity:1;stroke-width:0.00455442;stroke-linejoin:round;stroke-dasharray:0.00455442, 0.00455442"
         d="m 82.48251,210.52658 c -0.218954,-0.006 -0.25843,-0.01 -0.313354,-0.023 -0.01755,-0.004 -0.04404,-0.01 -0.0589,-0.012 -0.03834,-0.005 -0.05689,-0.0123 -0.07522,-0.0256 -0.01991,-0.0144 -0.05497,-0.0571 -0.07803,-0.0952 -0.0094,-0.0155 -0.02391,-0.0382 -0.03218,-0.0503 -0.01867,-0.0273 -0.02946,-0.0481 -0.03973,-0.0769 -0.01011,-0.0284 -0.01362,-0.0349 -0.03845,-0.0733 -0.03361,-0.0518 -0.03899,-0.0622 -0.05907,-0.11221 -0.05789,-0.14438 -0.06844,-0.2054 -0.06809,-0.39449 1.8e-4,-0.10041 7.04e-4,-0.11493 0.0073,-0.17517 0.0039,-0.0361 0.0088,-0.0767 0.01081,-0.0902 0.0045,-0.0292 0.03808,-0.14626 0.04874,-0.16957 0.01687,-0.0369 0.04218,-0.063 0.0837,-0.0866 0.01213,-0.006 0.03089,-0.0184 0.04169,-0.0259 0.037,-0.0253 0.06462,-0.0364 0.136149,-0.0542 0.05625,-0.014 0.07886,-0.0229 0.106924,-0.0417 0.01349,-0.01 0.03767,-0.0235 0.05373,-0.0319 0.03789,-0.0202 0.04803,-0.0266 0.09204,-0.0574 0.02017,-0.0142 0.04256,-0.0283 0.04974,-0.0314 0.0072,-0.004 0.02544,-0.0111 0.04056,-0.0177 0.05137,-0.0226 0.07412,-0.0299 0.140953,-0.0452 l 0.06675,-0.0152 0.0089,-0.0106 c 0.01216,-0.0139 0.03879,-0.0323 0.05828,-0.04 0.01265,-0.005 0.02395,-0.006 0.05318,-0.01 0.0308,-0.002 0.04159,-0.004 0.06331,-0.0113 0.03989,-0.0132 0.05486,-0.0153 0.107347,-0.015 0.05343,2.3e-4 0.08854,0.004 0.253247,0.0291 0.130645,0.0196 0.131026,0.0196 0.199713,0.0273 0.07098,0.007 0.07971,0.01 0.140076,0.0217 0.02665,0.005 0.07731,0.016 0.11259,0.0231 0.134153,0.0274 0.189124,0.0471 0.240988,0.0854 0.02779,0.0205 0.04446,0.0389 0.09422,0.10347 0.06159,0.0799 0.08144,0.10795 0.137423,0.19413 0.06631,0.1021 0.07074,0.10953 0.07915,0.13347 0.0067,0.0189 0.0072,0.0238 0.0071,0.058 -1.44e-4,0.0425 -0.0047,0.0706 -0.02344,0.14567 -0.01348,0.054 -0.02757,0.0955 -0.04707,0.13897 l -0.01387,0.0309 -0.0044,0.0631 c -0.0059,0.0841 -0.01034,0.12155 -0.01954,0.16269 -0.0043,0.0189 -0.0098,0.0454 -0.01216,0.0588 -0.0067,0.0365 -0.01569,0.0623 -0.02831,0.0804 -0.0062,0.008 -0.01812,0.026 -0.02653,0.0381 -0.0085,0.0121 -0.02123,0.0306 -0.02846,0.0413 -0.0072,0.0106 -0.01791,0.025 -0.02378,0.0318 -0.01705,0.0202 -0.07186,0.0685 -0.0918,0.0809 -0.01011,0.005 -0.02434,0.0154 -0.03167,0.0203 -0.0074,0.005 -0.02569,0.0139 -0.04079,0.0198 -0.0151,0.005 -0.03812,0.0171 -0.05119,0.0246 -0.02034,0.0115 -0.02965,0.0149 -0.06526,0.0235 -0.02288,0.005 -0.05425,0.0152 -0.06984,0.0217 -0.01558,0.005 -0.03855,0.0147 -0.05106,0.0184 -0.04162,0.0122 -0.09068,0.0307 -0.10261,0.0386 -0.0065,0.004 -0.01748,0.0116 -0.02443,0.0164 -0.01595,0.0107 -0.0597,0.0286 -0.09812,0.0401 -0.03465,0.0106 -0.05931,0.0128 -0.173313,0.0167 -0.09833,0.004 -0.555703,0.005 -0.644091,0.003 z m 0.610053,-0.22947 c 0.110745,-0.003 0.114506,-0.003 0.136151,-0.01 0.02645,-0.007 0.03948,-0.014 0.05387,-0.0255 0.02545,-0.0203 0.03111,-0.0226 0.132868,-0.0552 0.03142,-0.01 0.07148,-0.0238 0.08902,-0.0308 0.01755,-0.006 0.04426,-0.0158 0.05938,-0.0195 0.01522,-0.004 0.03451,-0.0109 0.04321,-0.0158 0.0086,-0.005 0.02877,-0.015 0.04473,-0.0225 0.05147,-0.0246 0.07618,-0.0434 0.0979,-0.0749 0.007,-0.01 0.01932,-0.0258 0.02751,-0.0349 0.02292,-0.0257 0.026,-0.0328 0.03772,-0.0851 0.01199,-0.0535 0.01416,-0.07 0.01997,-0.1507 0.0066,-0.0914 0.01175,-0.1153 0.03665,-0.16895 0.01856,-0.04 0.0284,-0.071 0.0419,-0.13195 l 0.01129,-0.051 -0.0253,-0.0384 c -0.01394,-0.0212 -0.03886,-0.059 -0.05542,-0.0841 -0.0358,-0.0545 -0.134876,-0.1855 -0.14716,-0.19473 -0.02095,-0.0157 -0.05859,-0.026 -0.203704,-0.0553 -0.115505,-0.0235 -0.117747,-0.0238 -0.19506,-0.0327 -0.03168,-0.004 -0.11534,-0.0151 -0.185896,-0.0257 -0.131086,-0.0195 -0.183743,-0.0261 -0.218785,-0.0275 -0.01922,-6.9e-4 -0.02043,-4.7e-4 -0.04115,0.0108 -0.01176,0.005 -0.02139,0.0128 -0.02146,0.0141 -5.2e-5,0.002 -0.0017,0.005 -0.0037,0.01 -0.0033,0.005 -0.0033,0.006 7.03e-4,0.005 0.0023,-8.7e-4 0.01023,-0.005 0.0175,-0.01 0.02302,-0.0148 0.03494,-0.0189 0.05491,-0.0189 0.06452,-1.7e-4 0.539063,0.0718 0.671587,0.102 0.100282,0.0229 0.126372,0.0382 0.176876,0.10463 0.03167,0.0416 0.166114,0.24089 0.166114,0.24618 0,0.007 -0.02975,0.10707 -0.05097,0.17052 -0.02952,0.0882 -0.03334,0.10685 -0.03811,0.18547 -0.0052,0.0851 -0.0202,0.15065 -0.04631,0.20221 -0.04398,0.0868 -0.106324,0.12504 -0.325422,0.19953 -0.08265,0.0281 -0.127415,0.0459 -0.172805,0.0688 -0.04362,0.022 -0.05463,0.0247 -0.117233,0.0291 -0.116092,0.007 -0.686302,0.01 -0.805712,0.003 -0.117683,-0.006 -0.147199,-0.0112 -0.17022,-0.0246 -0.01485,-0.008 -0.03678,-0.0327 -0.05086,-0.0558 -0.0063,-0.0106 -0.04507,-0.084 -0.08593,-0.16335 -0.04086,-0.0794 -0.07547,-0.14542 -0.07689,-0.14683 -0.0034,-0.004 0.01621,0.0515 0.03033,0.0852 0.006,0.0142 0.02339,0.0461 0.0387,0.0708 0.02679,0.0433 0.04564,0.0795 0.06103,0.11671 0.004,0.01 0.01487,0.0289 0.02416,0.0425 0.0093,0.0137 0.02079,0.0325 0.02552,0.0417 l 0.0086,0.0168 0.04017,0.01 c 0.05044,0.012 0.0684,0.0139 0.152768,0.0175 0.170822,0.006 0.476432,0.007 0.73704,0.002 z m -1.125656,-0.50298 c -0.0037,-0.0929 -0.0037,-0.23387 -2.13e-4,-0.27274 0.0058,-0.0613 0.01253,-0.0979 0.02463,-0.13277 0.01407,-0.0405 0.03114,-0.0606 0.06724,-0.0793 0.01211,-0.005 0.02111,-0.0114 0.01999,-0.0114 -0.0031,-1.1e-4 -0.03345,0.0152 -0.04196,0.0212 -0.0041,0.003 -0.0079,0.004 -0.0086,0.004 -0.003,-0.003 0.02991,-0.0238 0.04408,-0.0282 0.01863,-0.005 0.02748,-0.005 0.01635,-6.9e-4 -0.0044,0.002 -0.0055,0.004 -0.0027,0.003 0.003,-8.8e-4 0.02245,-0.005 0.0435,-0.0114 0.07417,-0.0192 0.125853,-0.0437 0.236649,-0.11206 0.07704,-0.0475 0.128483,-0.0744 0.17216,-0.0899 0.01548,-0.005 0.02773,-0.0106 0.02721,-0.0109 -0.0027,-0.003 -0.06087,0.0208 -0.101011,0.0408 -0.0251,0.0125 -0.04615,0.0221 -0.04677,0.0216 -0.0023,-0.003 0.0373,-0.0255 0.05935,-0.0349 0.02382,-0.0106 0.04314,-0.0205 0.04144,-0.0222 -9.29e-4,-8.7e-4 -0.04942,0.0204 -0.06859,0.0306 -0.0058,0.003 -0.01871,0.0114 -0.0288,0.0186 -0.03095,0.0224 -0.04903,0.0339 -0.07912,0.0502 -0.0159,0.008 -0.04111,0.0246 -0.05606,0.0352 -0.01492,0.0107 -0.03365,0.0227 -0.04158,0.0268 -0.01826,0.01 -0.09448,0.0329 -0.143767,0.0451 -0.02076,0.005 -0.0402,0.0106 -0.0432,0.0121 -0.0031,0.002 -0.01871,0.0122 -0.03495,0.0236 l -0.02951,0.0207 -0.0075,0.0233 c -0.01546,0.0478 -0.01879,0.064 -0.02534,0.12281 -0.01493,0.13412 -0.013,0.29746 0.0045,0.37578 0.0017,0.007 0.0037,0.0127 0.0044,0.0107 7.04e-4,-0.002 -1.48e-4,-0.0372 -0.0019,-0.0786 z m 0.6251,-0.7345 c 0.04524,-0.01 0.05139,-0.0106 0.04909,-0.006 -7.04e-4,8.6e-4 0.0034,8.6e-4 0.0095,-4.7e-4 0.0089,-0.003 0.01,-0.004 0.0059,-0.004 -0.0039,-0.002 -0.0041,-0.002 -9.3e-4,-0.002 0.0023,-1e-4 0.0081,-8.7e-4 0.01286,-0.002 0.0057,-8.7e-4 0.008,-6.9e-4 0.007,8.7e-4 -0.0011,0.002 0.0017,0.002 0.0089,4e-5 0.0077,-0.002 0.0098,-0.004 0.0072,-0.005 -0.0023,-0.002 8e-5,-0.002 0.0071,-8.7e-4 0.0077,8.7e-4 0.0094,7e-4 0.0066,-0.002 -0.003,-0.002 -0.0019,-0.003 0.0047,-8.8e-4 0.006,8.8e-4 0.0081,7e-4 0.0068,-0.002 -0.0011,-0.002 2.35e-4,-0.003 0.0052,-8.7e-4 0.0037,8.7e-4 0.007,7e-4 0.007,-4.7e-4 0,-8.7e-4 0.0057,-0.003 0.01258,-0.004 0.01291,-0.002 0.0725,-0.0194 0.07065,-0.0213 -4.68e-4,-4.6e-4 -0.01093,0.002 -0.02313,0.004 -0.01215,0.003 -0.07385,0.0167 -0.137082,0.0308 -0.06324,0.014 -0.115669,0.0263 -0.116516,0.0272 -0.0019,0.002 4.69e-4,0.002 0.05691,-0.0106 z m -0.0071,0.006 c -0.0019,-6.9e-4 -0.0047,1e-4 -0.0062,0.002 -0.0019,0.002 -9.3e-4,0.003 0.0034,8.8e-4 0.0035,-8.8e-4 0.0047,-0.002 0.0027,-0.003 z m 0.03477,-0.008 c 0.0014,-8.7e-4 -0.0021,-8.7e-4 -0.0079,4.6e-4 -0.0057,0.002 -0.01082,0.004 -0.01152,0.004 -0.0023,0.003 0.01689,-0.003 0.01943,-0.004 z"
         id="path912" />
      <path
         style="fill:#0000f7;fill-opacity:1;stroke-width:0.00455442;stroke-linejoin:round;stroke-dasharray:0.00455442, 0.00455442"
         d="m 82.472037,210.52655 c -0.195341,-0.005 -0.239498,-0.01 -0.28801,-0.0196 -0.01656,-0.004 -0.0419,-0.008 -0.05629,-0.0115 -0.0692,-0.0132 -0.08055,-0.0174 -0.103292,-0.0375 -0.01656,-0.0147 -0.05309,-0.0622 -0.07102,-0.0924 -0.0075,-0.0128 -0.02048,-0.033 -0.02871,-0.0451 -0.01849,-0.0271 -0.03046,-0.0507 -0.04185,-0.0822 -0.0062,-0.0171 -0.01661,-0.0365 -0.03518,-0.0657 -0.03751,-0.0588 -0.03885,-0.0613 -0.05388,-0.0982 -0.04512,-0.11097 -0.05957,-0.16341 -0.06981,-0.25356 -0.0036,-0.0323 -0.0045,-0.0622 -0.0044,-0.15586 1.49e-4,-0.11231 4.69e-4,-0.11825 0.0085,-0.19062 0.01,-0.0899 0.0095,-0.0873 0.0322,-0.16615 0.02294,-0.0797 0.03359,-0.10252 0.06042,-0.12944 0.01046,-0.0106 0.02668,-0.0236 0.03604,-0.029 0.0094,-0.005 0.03292,-0.02 0.05237,-0.0324 0.04738,-0.0301 0.06193,-0.0359 0.145315,-0.0575 0.05683,-0.0148 0.07205,-0.0211 0.107347,-0.0438 0.01584,-0.0106 0.04264,-0.026 0.05953,-0.035 0.01689,-0.008 0.04871,-0.0291 0.0707,-0.0445 0.04027,-0.0284 0.04762,-0.0323 0.111966,-0.0604 0.04581,-0.02 0.0573,-0.0236 0.130913,-0.0404 l 0.06153,-0.014 0.01706,-0.0164 c 0.01991,-0.0191 0.0448,-0.0336 0.06682,-0.0389 0.0086,-0.002 0.02917,-0.004 0.04573,-0.005 0.02307,-0.002 0.0353,-0.004 0.05237,-0.01 0.03322,-0.0111 0.05318,-0.015 0.08509,-0.0168 0.04804,-0.003 0.104172,0.004 0.281463,0.0299 0.117316,0.0176 0.143828,0.0212 0.209462,0.0283 0.02665,0.003 0.05845,0.006 0.0707,0.01 0.04436,0.007 0.235044,0.0477 0.263342,0.0551 0.08392,0.022 0.141873,0.0524 0.18365,0.0963 0.0198,0.0208 0.106406,0.13313 0.138328,0.17939 0.03954,0.0572 0.116844,0.17765 0.127462,0.19845 0.01434,0.0282 0.01856,0.0507 0.01684,0.09 -0.0031,0.07 -0.03486,0.19403 -0.06949,0.27099 -0.0074,0.0165 -0.01408,0.0332 -0.01478,0.0373 -7.04e-4,0.004 -0.0037,0.0403 -0.0066,0.0806 -0.0055,0.0767 -0.0089,0.10295 -0.01958,0.15044 -0.0035,0.0158 -0.0084,0.039 -0.01069,0.0517 -0.0047,0.0255 -0.01261,0.0527 -0.01878,0.0643 -0.0066,0.0125 -0.07661,0.11237 -0.08923,0.12719 -0.03616,0.0425 -0.110381,0.098 -0.156254,0.11688 -0.02495,0.0106 -0.03639,0.0158 -0.06464,0.0314 -0.01243,0.006 -0.02921,0.0125 -0.05797,0.0196 -0.02226,0.005 -0.05338,0.0151 -0.06915,0.0216 -0.01576,0.005 -0.04248,0.0158 -0.05938,0.0209 -0.05731,0.0176 -0.08376,0.0287 -0.110122,0.0461 -0.01704,0.0112 -0.03589,0.0207 -0.05842,0.0294 -0.06911,0.0267 -0.08605,0.0293 -0.217864,0.034 -0.09892,0.004 -0.571866,0.005 -0.659803,0.003 z m 0.613981,-0.22944 0.120441,-0.003 0.02796,-0.008 c 0.02031,-0.005 0.03236,-0.0121 0.04411,-0.0205 0.03054,-0.022 0.0409,-0.0266 0.123076,-0.0534 0.04533,-0.0147 0.09419,-0.0315 0.108594,-0.0372 0.01441,-0.005 0.03973,-0.014 0.05629,-0.0184 0.01932,-0.005 0.03646,-0.0118 0.04781,-0.0184 0.0098,-0.005 0.02772,-0.0149 0.03997,-0.0203 0.04538,-0.0205 0.07475,-0.0432 0.09572,-0.0737 0.007,-0.0106 0.01922,-0.0257 0.0273,-0.0348 0.02057,-0.023 0.02553,-0.0339 0.03625,-0.0801 0.01275,-0.055 0.0139,-0.0631 0.01999,-0.14124 0.0085,-0.11022 0.01163,-0.12509 0.03903,-0.18584 0.0087,-0.0194 0.01933,-0.0469 0.0237,-0.0614 0.0084,-0.0275 0.02633,-0.1067 0.02633,-0.11572 0,-0.005 -0.06739,-0.11121 -0.101634,-0.16001 -0.02196,-0.0312 -0.07097,-0.0965 -0.09886,-0.13155 -0.01772,-0.0222 -0.02444,-0.0287 -0.03691,-0.0352 -0.02125,-0.0112 -0.05756,-0.0212 -0.131986,-0.0366 -0.133642,-0.0277 -0.181122,-0.0362 -0.24459,-0.0437 -0.06186,-0.006 -0.09024,-0.0112 -0.257898,-0.036 -0.0861,-0.0128 -0.13426,-0.0183 -0.159714,-0.0183 -0.01828,2e-5 -0.021,7e-4 -0.0391,0.0109 -0.0146,0.007 -0.02031,0.0129 -0.02292,0.0192 -0.0019,0.004 -0.0025,0.008 -0.0011,0.008 0.0011,0 0.0092,-0.004 0.01769,-0.01 0.03848,-0.0244 0.0443,-0.0243 0.22754,8.6e-4 0.212129,0.0293 0.438137,0.0673 0.519724,0.0873 0.08201,0.0201 0.107241,0.0362 0.155377,0.099 0.03099,0.0405 0.16667,0.2416 0.16667,0.24707 0,0.007 -0.0265,0.0967 -0.0485,0.16306 -0.03158,0.0953 -0.03522,0.11266 -0.04054,0.19414 -0.0059,0.089 -0.01914,0.14705 -0.04603,0.20052 -0.04339,0.0863 -0.105266,0.12453 -0.321827,0.19872 -0.09074,0.031 -0.118909,0.0422 -0.170185,0.0672 -0.05097,0.0249 -0.06112,0.0275 -0.124369,0.0318 -0.103209,0.006 -0.562536,0.0106 -0.732271,0.005 -0.0969,-0.003 -0.183574,-0.008 -0.208993,-0.0146 -0.03513,-0.007 -0.05765,-0.0255 -0.08295,-0.0653 -0.0076,-0.0121 -0.0475,-0.087 -0.08854,-0.16671 -0.04105,-0.0797 -0.07498,-0.14375 -0.07543,-0.14249 -0.0011,0.004 0.02942,0.0823 0.04088,0.10475 0.0058,0.0112 0.01882,0.0337 0.02909,0.0499 0.02274,0.0361 0.04403,0.0766 0.05502,0.10474 0.0045,0.0115 0.01652,0.0336 0.02667,0.049 0.01011,0.0153 0.0224,0.0356 0.02719,0.0449 l 0.0087,0.0169 0.03621,0.007 c 0.01991,0.004 0.0426,0.01 0.05037,0.0108 0.01973,0.004 0.08853,0.007 0.170436,0.01 0.107429,0.004 0.532136,0.004 0.666347,4e-5 z m -1.119179,-0.49858 c -0.0037,-0.0908 -0.0037,-0.24099 -6.8e-5,-0.28081 0.0071,-0.076 0.02057,-0.13145 0.04022,-0.16412 0.0098,-0.0162 0.02733,-0.0316 0.04892,-0.0428 0.01069,-0.005 0.01853,-0.0106 0.01741,-0.0106 -0.0031,-9e-5 -0.02815,0.0127 -0.03673,0.0185 -0.0041,0.003 -0.008,0.004 -0.0088,0.004 -7.04e-4,-6.8e-4 0.0059,-0.006 0.01478,-0.013 0.01548,-0.0112 0.0247,-0.015 0.04467,-0.0184 0.0072,-8.7e-4 0.0082,-8.7e-4 0.005,0.002 -0.0034,0.003 -0.0034,0.003 1.91e-4,0.002 0.0023,-6.9e-4 0.02025,-0.005 0.03995,-0.0106 0.07148,-0.0184 0.135625,-0.0492 0.237393,-0.1136 0.03591,-0.0229 0.06645,-0.0405 0.09557,-0.0558 0.01584,-0.007 0.02773,-0.015 0.0264,-0.015 -0.0014,-1e-5 -0.01825,0.007 -0.03763,0.0181 -0.01937,0.01 -0.03579,0.0176 -0.03643,0.0169 -0.0026,-0.003 0.03128,-0.0224 0.06576,-0.0386 0.02004,-0.01 0.03584,-0.0177 0.03513,-0.0184 -0.0034,-0.004 -0.0764,0.0344 -0.104267,0.0541 -0.01656,0.0116 -0.0472,0.0309 -0.06807,0.0427 -0.02088,0.0118 -0.04797,0.0287 -0.06022,0.0376 -0.01225,0.008 -0.02992,0.0202 -0.03927,0.0251 -0.02097,0.0108 -0.08683,0.0319 -0.142693,0.0458 -0.02305,0.005 -0.04425,0.0116 -0.04712,0.013 -0.0098,0.005 -0.06283,0.0436 -0.06484,0.0471 -0.0011,0.002 -0.0073,0.0215 -0.01368,0.0436 -0.01,0.0341 -0.01272,0.0491 -0.0187,0.10125 -0.0061,0.0529 -0.0072,0.0746 -0.0081,0.16022 -0.0011,0.10051 9.3e-4,0.14698 0.0087,0.19209 0.0088,0.0512 0.0099,0.0436 0.0065,-0.0416 z m 0.544472,-0.70546 c 0.0035,-0.002 0.0054,-0.004 0.0039,-0.004 -0.0014,0 -0.0057,0.002 -0.0092,0.004 -0.0035,0.002 -0.0054,0.004 -0.0039,0.004 0.0014,0 0.0057,-0.002 0.0092,-0.004 z m 0.03141,-0.0116 c 0.0094,-0.004 0.01821,-0.006 0.01964,-0.007 0.0014,-0.002 -0.0073,8.7e-4 -0.01937,0.005 -0.01211,0.004 -0.02271,0.008 -0.02356,0.01 -9.3e-4,8.7e-4 2.03e-4,8.7e-4 0.0023,4.6e-4 0.0021,-7e-4 0.01163,-0.004 0.02095,-0.006 z m -7.04e-4,-0.0118 c -9.3e-4,-8.6e-4 -0.0031,-8.6e-4 -0.005,-2e-4 -0.0021,8.7e-4 -0.0014,0.002 0.0017,0.002 0.0027,1e-4 0.0044,-4.7e-4 0.0034,-0.002 z m 0.0508,-0.0106 c 0.02344,-0.005 0.04541,-0.008 0.04884,-0.007 0.0077,0.002 0.01839,-8.7e-4 0.0138,-0.004 -0.0019,-8.8e-4 0.0011,-0.003 0.0077,-0.004 0.006,-8.6e-4 0.01202,-8.6e-4 0.01345,-1.1e-4 0.0035,0.002 0.01593,-8.8e-4 0.01424,-0.004 -0.0017,-0.003 0.01865,-0.005 0.02226,-0.004 0.0014,8.8e-4 0.0025,1.4e-4 0.0025,-0.002 0,-0.002 0.0026,-0.003 0.0066,-0.002 0.0035,7e-4 0.0066,4.7e-4 0.0066,-6.8e-4 0,-8.7e-4 0.0049,-0.003 0.01117,-0.004 0.01256,-0.002 0.06945,-0.0181 0.0658,-0.0194 -0.0021,-6.9e-4 -0.252397,0.0545 -0.258883,0.0571 -0.0077,0.004 0.0082,4.6e-4 0.04615,-0.007 z m 0.0193,0.002 c 0.0033,-0.002 0.0037,-0.003 0.0014,-0.003 -0.0021,0 -0.0063,8.7e-4 -0.0092,0.003 -0.0033,0.002 -0.0037,0.003 -0.0014,0.003 0.0021,0 0.0063,-8.6e-4 0.0092,-0.003 z"
         id="path914" />
      <path
         style="fill:none;stroke:#000000;stroke-width:0.264583px;stroke-linecap:butt;stroke-linejoin:miter;stroke-opacity:1"
         d="m 84.477676,202.50074 c -0.123346,0 -0.249338,0 -0.415317,0.0391 -0.16598,0.0391 -0.370715,0.11785 -0.46586,0.34786 -0.09514,0.23001 -0.0794,0.60798 6.14e-4,0.86778 0.08001,0.25981 0.22175,0.40155 0.552554,0.48694 0.330803,0.0854 0.850522,0.11688 1.164023,0.0696 0.3135,-0.0472 0.423749,-0.17323 0.478951,-0.27436 0.0552,-0.10114 0.0552,-0.17989 0.03179,-0.38447 -0.02341,-0.20457 -0.07066,-0.5353 -0.218924,-0.73326 -0.148266,-0.19795 -0.400261,-0.26095 -0.565859,-0.29283 -0.165599,-0.0319 -0.244344,-0.0319 -0.322824,-0.047 -0.07848,-0.0151 -0.15719,-0.0466 -0.229861,-0.0155 -0.07267,0.0311 -0.135688,0.12567 -0.221853,0.21181 -0.08617,0.0861 -0.196405,0.16488 -0.251776,0.22938 -0.05537,0.0645 -0.05537,0.1117 -0.07133,0.15795 -0.01595,0.0463 -0.04743,0.0935 -0.06298,0.37011 -0.01555,0.27664 -0.01555,0.7806 6.45e-4,1.08795 0.0162,0.30736 0.0477,0.41761 0.07094,0.62216 0.02325,0.20455 0.039,0.50378 0.06386,0.66907 0.02486,0.16529 0.05636,0.19679 0.0708,0.36217 0.01444,0.16538 0.01444,0.46461 -0.0487,1.12589 -0.06314,0.66128 -0.189128,1.68496 -0.275314,2.21121 -0.08619,0.52626 -0.133388,0.55773 -0.173281,0.59762 -0.03989,0.0399 -0.07137,0.0871 -0.133648,0.1338 -0.06228,0.0467 -0.156749,0.0939 -0.376721,0.14913 -0.219972,0.0552 -0.566457,0.11819 -0.74809,0.12785 -0.181633,0.01 -0.197369,-0.0376 -0.24383,-0.10084 -0.04646,-0.0633 -0.125207,-0.14203 -0.197137,-0.36233 -0.07193,-0.2203 -0.134928,-0.58253 -0.14275,-0.78111 -0.0078,-0.19858 0.03938,-0.23005 0.236695,-0.30887 0.197313,-0.0788 0.54379,-0.20481 0.756351,-0.28356 0.212561,-0.0788 0.291271,-0.11024 0.370663,-0.12572 0.07939,-0.0155 0.158139,-0.0155 0.339094,-0.0314 0.180955,-0.0159 0.464427,-0.0474 0.612994,0.0408 0.148567,0.0882 0.164317,0.29291 0.172083,0.52117 0.0078,0.22827 0.0078,0.48026 -0.06322,0.69169 -0.07099,0.21143 -0.212731,0.38467 -0.486896,0.47115 -0.274165,0.0865 -0.683639,0.0865 -0.935516,0.0483 -0.251878,-0.0382 -0.346369,-0.11692 -0.402393,-0.17952 -0.05602,-0.0626 -0.07176,-0.10981 -0.09433,-0.14212 -0.02258,-0.0323 -0.0541,-0.048 -0.06361,-0.22082 -0.0095,-0.17276 0.0062,-0.50348 0.08549,-0.70973 0.07925,-0.20625 0.220991,-0.28499 0.450228,-0.32411 0.229237,-0.0391 0.544215,-0.0391 0.835759,-0.0152 0.291544,0.0239 0.559269,0.0711 0.723922,0.15908 0.164653,0.088 0.22765,0.21394 0.258353,0.32389 0.0307,0.10996 0.0307,0.2045 0.04747,0.27558 0.01677,0.0711 0.04824,0.11829 0.06298,0.1732 0.01474,0.0549 0.01474,0.11794 0.03181,0.14811 0.01707,0.0302 0.04857,0.0302 0.08774,0.0632 0.03917,0.033 0.08639,0.096 0.133852,0.12597 0.04746,0.03 0.09471,0.03 0.157904,0.0382 0.0632,0.008 0.141951,0.024 0.188454,0.0489 0.0465,0.0249 0.06225,0.0564 0.149412,0.0706 0.08716,0.0142 0.24465,0.0142 0.378773,0.0304 0.134122,0.0162 0.24434,0.0477 0.551202,0.063 0.306862,0.0153 0.81083,0.0153 1.094311,0.0153 0.283481,0 0.346479,0 0.392199,-0.0233 0.04572,-0.0233 0.0772,-0.0705 0.110228,-0.0945 0.03303,-0.0239 0.06453,-0.0239 0.0945,-0.0473 0.02997,-0.0233 0.06144,-0.0705 0.11666,-0.14158 0.05522,-0.071 0.133986,-0.16558 0.165685,-0.32967 0.0317,-0.16409 0.01595,-0.40032 -0.02196,-0.52733 -0.03791,-0.12702 -0.100912,-0.14278 -0.141035,-0.1652 -0.04012,-0.0224 -0.05587,-0.0539 -0.08659,-0.0786 -0.03071,-0.0247 -0.07797,-0.0405 -0.125264,-0.0636 -0.04729,-0.0231 -0.09454,-0.0546 -0.197125,-0.0714 -0.102584,-0.0168 -0.260075,-0.0168 -0.35458,-0.0312 -0.0945,-0.0144 -0.125953,-0.0459 -0.188962,-0.063 -0.06301,-0.0171 -0.157503,-0.0171 -0.409839,0.0299 -0.252337,0.047 -0.661821,0.14152 -0.883477,0.21292 -0.221656,0.0714 -0.253132,0.11862 -0.252813,0.32449 3.19e-4,0.20588 0.03182,0.56811 0.0801,0.78862 0.04829,0.22051 0.111276,0.29925 0.182169,0.38584 0.07089,0.0866 0.149661,0.1811 0.346767,0.24281 0.197106,0.0617 0.512097,0.0932 0.771835,0.10881 0.259737,0.0156 0.464474,0.0156 0.691285,-0.18876 0.226811,-0.20437 0.478794,-0.61384 0.488219,-0.93574 0.0094,-0.3219 -0.226812,-0.55814 -0.3841,-0.68514 -0.157288,-0.127 -0.236023,-0.14274 -0.338322,-0.18161 -0.1023,-0.0389 -0.228309,-0.10187 -0.441188,-0.13417 -0.212878,-0.0323 -0.512109,-0.0323 -0.67115,1.2e-4 -0.159042,0.0324 -0.174802,0.0954 -0.213931,0.1575 -0.03913,0.0621 -0.102147,0.12507 -0.133645,0.33114 -0.0315,0.20606 -0.0315,0.55253 0.0015,0.74918 0.03298,0.19665 0.09595,0.24389 0.134241,0.29944 0.03829,0.0556 0.05405,0.1186 0.315107,0.2357 0.26106,0.1171 0.765027,0.29034 1.054673,0.32931 0.289646,0.039 0.368415,-0.0556 0.431834,-0.11888 0.06342,-0.0633 0.110622,-0.0948 0.118318,-0.30581 0.0077,-0.211 -0.0238,-0.60473 -0.05409,-0.80301 -0.03029,-0.19828 -0.06179,-0.19828 -0.132401,-0.22888 -0.07061,-0.0306 -0.180879,-0.0936 -0.267742,-0.126 -0.08686,-0.0324 -0.14986,-0.0324 -0.220498,-0.0551 -0.07064,-0.0227 -0.149359,-0.0699 -0.338592,-0.0945 -0.189233,-0.0246 -0.488464,-0.0246 -0.677218,-0.0473 -0.188755,-0.0227 -0.267479,-0.0699 -0.338581,-0.12465 -0.0711,-0.0547 -0.134124,-0.11775 -0.181107,-0.15764 -0.04698,-0.0399 -0.07851,-0.0556 -0.09583,-0.1102 -0.01732,-0.0546 -0.01732,-0.14909 -0.05603,-0.29056 -0.03871,-0.14146 -0.117452,-0.33045 -0.157489,-0.63783 -0.04004,-0.30738 -0.04004,-0.7326 0.0069,-1.06397 0.04697,-0.33137 0.141467,-0.56761 0.212482,-0.89785 0.07101,-0.33025 0.118263,-0.75548 0.149773,-1.04682 0.03151,-0.29134 0.04726,-0.44883 0.04743,-0.73212 1.7e-4,-0.28329 -0.01558,-0.69276 -0.05343,-0.91383 -0.03785,-0.22107 -0.100803,-0.25255 -0.133901,-0.27565 -0.0331,-0.0231 -0.0331,-0.0389 -0.149891,-0.048 -0.116793,-0.009 -0.353029,-0.009 -0.565368,-0.0401 -0.212339,-0.031 -0.401345,-0.094 -0.567136,-0.11825 -0.165791,-0.0243 -0.307527,-0.009 -0.37956,0.0165 -0.07203,0.025 -0.07203,0.0566 -0.08726,0.0786 -0.01522,0.0221 -0.04671,0.0378 -0.06299,0.11024 -0.01628,0.0725 -0.01628,0.19844 0.0087,0.26011 0.02495,0.0617 0.07219,0.0617 0.125721,-0.009 0.05352,-0.0703 0.116521,-0.212 0.180001,-0.30727 0.06348,-0.0953 0.126454,-0.14249 0.21297,-0.2133 0.08652,-0.0708 0.196783,-0.16531 0.300623,-0.19619 0.10384,-0.0309 0.198335,6.2e-4 0.244001,0.025 0.04567,0.0244 0.04567,0.0402 0.07088,0.0552 0.02521,0.0149 0.07245,0.0307 0.102896,0.0632 0.03044,0.0326 0.04618,0.0798 0.110158,0.14226 0.06398,0.0625 0.174214,0.14124 0.227834,0.20449 0.05362,0.0633 0.05362,0.11045 0.09444,0.16543 0.04082,0.055 0.119579,0.11798 0.213472,0.25226 0.09389,0.13429 0.204134,0.33902 0.258406,0.512 0.05427,0.17299 0.05427,0.31473 0.04636,0.65329 -0.0079,0.33857 -0.02366,0.87404 -0.04748,1.20442 -0.02382,0.33037 -0.05532,0.45637 -0.07083,0.68512 -0.01551,0.22875 -0.01551,0.55948 -0.0314,0.85065 -0.01589,0.29117 -0.04739,0.54316 -0.06299,0.8662 -0.0156,0.32303 -0.0156,0.71676 -0.03159,0.97623 -0.01598,0.25947 -0.04748,0.38546 -0.06299,0.51972 -0.01551,0.13425 -0.01551,0.27599 -0.03882,0.36108 -0.02331,0.0851 -0.07056,0.11659 -0.0945,0.14175 -0.02394,0.0252 -0.02394,0.041 -0.03989,0.0714 -0.01595,0.0305 -0.04743,0.0777 -0.07741,0.10103 -0.02998,0.0233 -0.06148,0.0233 -0.08668,0.0396 -0.0252,0.0163 -0.04095,0.0478 -0.08662,0.063 -0.04567,0.0152 -0.124412,0.0152 -0.31313,-0.0549 -0.188718,-0.0701 -0.487951,-0.21185 -0.701259,-0.39215 -0.213309,-0.1803 -0.339303,-0.40079 -0.403193,-0.71602 -0.06389,-0.31522 -0.06389,-0.72469 -0.06389,-1.2444 0,-0.51972 0,-1.14969 0,-1.54341 0,-0.39373 0,-0.55121 0,-0.69295 0,-0.14175 0,-0.26774 0,-0.45673 0,-0.18899 0,-0.44097 -0.0077,-0.64559 -0.0077,-0.20462 -0.02348,-0.3621 -0.04566,-0.44937 -0.02218,-0.0873 -0.05367,-0.10298 -0.07101,-0.16544 -0.01734,-0.0625 -0.01734,-0.17271 -0.01734,-0.30657 0,-0.13387 0,-0.29136 0,-0.39373 0,-0.10237 0,-0.14957 0,-0.16534 0,-0.0158 0,3e-5 0,0.063 0,0.063 0,0.17323 -0.0081,0.27533 -0.008,0.1021 -0.02381,0.19663 -0.0315,0.43311 -0.0077,0.23649 -0.0077,0.61447 -0.0077,1.04757 0,0.43309 0,0.92131 0,1.29142 0,0.3701 0,0.62208 0.01639,0.78772 0.01639,0.16565 0.04789,0.24438 -0.03964,0.57428 -0.08753,0.32989 -0.292266,0.91261 -0.496464,1.49379"
         id="path837"
         inkscape:path-effect="#path-effect839"
         inkscape:original-d="m 84.477676,202.50074 c -0.123346,0.003 -0.249338,0.003 -0.377975,0 -0.202092,0.0814 -0.406829,0.16014 -0.614212,0.23624 0.01839,0.38062 0.03414,0.75859 0.04725,1.13393 0.144386,0.14438 0.286126,0.28612 0.425223,0.42522 0.522361,0.0341 1.04208,0.0656 1.559152,0.0945 0.112887,-0.12334 0.223131,-0.24934 0.330729,-0.37797 0.0026,-0.0761 0.0026,-0.15485 0,-0.23624 -0.0446,-0.32808 -0.09185,-0.65881 -0.141742,-0.99219 -0.249338,-0.0603 -0.501322,-0.12334 -0.755952,-0.18898 -0.0761,0.003 -0.154845,0.003 -0.236236,0 -0.0761,-0.0289 -0.154845,-0.0603 -0.236236,-0.0945 -0.06035,0.0971 -0.123346,0.19164 -0.188986,0.28348 -0.107598,0.0814 -0.21784,0.16014 -0.330729,0.23624 0.0026,0.0499 0.0026,0.0971 0,0.14174 -0.02885,0.0499 -0.06035,0.0971 -0.09449,0.14174 0.0026,0.50662 0.0026,1.01058 0,1.5119 0.03414,0.11289 0.06564,0.22314 0.09449,0.33073 0.01839,0.30188 0.03414,0.60111 0.04725,0.8977 0.03414,0.0341 0.06564,0.0656 0.09449,0.0945 0.0026,0.30188 0.0026,0.60111 0,0.8977 -0.123347,1.02633 -0.249338,2.05001 -0.377976,3.07105 -0.0446,0.0342 -0.09185,0.0656 -0.14174,0.0945 -0.02885,0.0499 -0.06035,0.0971 -0.0945,0.14174 -0.09185,0.0499 -0.186341,0.0971 -0.28348,0.14174 -0.343834,0.0656 -0.690311,0.12864 -1.039437,0.18899 -0.0131,-0.0446 -0.02885,-0.0918 -0.04725,-0.14174 -0.0761,-0.0761 -0.154843,-0.15485 -0.236234,-0.23624 -0.06035,-0.35958 -0.123346,-0.72181 -0.188989,-1.08668 0.04989,-0.0289 0.09714,-0.0603 0.14174,-0.0945 0.349126,-0.12334 0.695603,-0.24933 1.039437,-0.37797 0.08139,-0.0289 0.160134,-0.0603 0.236233,-0.0945 0.08139,0.003 0.160136,0.003 0.236236,0 0.286128,-0.0289 0.569611,-0.0603 0.850448,-0.0945 0.01839,0.20738 0.03414,0.41212 0.04725,0.61421 0.0026,0.25463 0.0026,0.50662 0,0.75595 -0.139097,0.17589 -0.280837,0.34913 -0.425225,0.51972 -0.406826,0.003 -0.8163,0.003 -1.228421,0 -0.09185,-0.0761 -0.186343,-0.15484 -0.283482,-0.23623 -0.0131,-0.0446 -0.02885,-0.0918 -0.04725,-0.14175 -0.02885,-0.0131 -0.06035,-0.0289 -0.0945,-0.0472 0.01839,-0.32809 0.03415,-0.65881 0.04725,-0.99219 0.144385,-0.0761 0.286125,-0.15484 0.425222,-0.23624 0.317627,0.003 0.632605,0.003 0.944941,0 0.270378,0.0499 0.538112,0.0971 0.803198,0.14175 0.06564,0.12864 0.128638,0.25463 0.188989,0.37797 0.0026,0.0971 0.0026,0.19164 0,0.28349 0.03415,0.0499 0.06564,0.0971 0.09449,0.14174 0.0026,0.0656 0.0026,0.12863 0,0.18898 0.03414,0.003 0.06564,0.003 0.09449,0 0.04989,0.0657 0.09714,0.12864 0.141742,0.18899 0.04989,0.003 0.09714,0.003 0.14174,0 0.08139,0.0184 0.160137,0.0342 0.236236,0.0473 0.01839,0.0341 0.03414,0.0656 0.04725,0.0945 0.160136,0.003 0.317627,0.003 0.472469,0 0.11289,0.0342 0.223134,0.0656 0.330729,0.0945 0.506616,0.003 1.010584,0.003 1.511906,0 0.06564,0.003 0.128638,0.003 0.188989,0 0.03414,-0.0446 0.06564,-0.0918 0.09449,-0.14174 0.03414,0.003 0.06564,0.003 0.09449,0 0.03414,-0.0446 0.06564,-0.0918 0.09449,-0.14175 0.08139,-0.0918 0.160137,-0.18634 0.236236,-0.28348 -0.0131,-0.23359 -0.02885,-0.46982 -0.04725,-0.7087 -0.06035,-0.0131 -0.123346,-0.0289 -0.188989,-0.0473 -0.0131,-0.0288 -0.02885,-0.0603 -0.04725,-0.0945 -0.0446,-0.0131 -0.09185,-0.0289 -0.14174,-0.0473 -0.0446,-0.0288 -0.09185,-0.0603 -0.141743,-0.0945 -0.154842,0.003 -0.312333,0.003 -0.472469,0 -0.02885,-0.0289 -0.06035,-0.0603 -0.09449,-0.0945 -0.09185,0.003 -0.186344,0.003 -0.283483,0 -0.406829,0.0971 -0.816303,0.19164 -1.228423,0.28348 -0.02885,0.0499 -0.06035,0.0971 -0.09449,0.14174 0.03415,0.36488 0.06564,0.72711 0.09449,1.08669 0.06564,0.0814 0.128638,0.16013 0.188989,0.23623 0.08139,0.0971 0.160136,0.19164 0.236233,0.28348 0.317627,0.0341 0.632608,0.0657 0.944941,0.0945 0.207383,0.003 0.41212,0.003 0.614212,0 0.254629,-0.40683 0.506613,-0.8163 0.755951,-1.22842 -0.233587,-0.23359 -0.469823,-0.46983 -0.708705,-0.70871 -0.0761,-0.0131 -0.154842,-0.0288 -0.236233,-0.0472 -0.123346,-0.0603 -0.249338,-0.12334 -0.377978,-0.18899 -0.296585,0.003 -0.595816,0.003 -0.897692,0 -0.0131,0.0656 -0.02885,0.12864 -0.04725,0.18899 -0.06035,0.0656 -0.123346,0.12864 -0.188989,0.18899 0.0026,0.34913 0.0026,0.6956 0,1.03943 0.06564,0.0499 0.128638,0.0971 0.188989,0.14175 0.01839,0.0656 0.03414,0.12864 0.04725,0.18898 0.506614,0.17589 1.010581,0.34913 1.511903,0.51972 0.08139,-0.0918 0.160137,-0.18634 0.236236,-0.28348 0.04989,-0.0289 0.09714,-0.0603 0.14174,-0.0945 -0.02885,-0.39108 -0.06035,-0.78481 -0.09449,-1.18118 -0.02885,0.003 -0.06035,0.003 -0.09449,0 -0.107599,-0.0603 -0.21784,-0.12335 -0.33073,-0.18899 -0.06035,0.003 -0.123346,0.003 -0.188989,0 -0.0761,-0.0446 -0.154842,-0.0918 -0.236233,-0.14174 -0.296587,0.003 -0.595818,0.003 -0.897694,0 -0.0761,-0.0446 -0.154845,-0.0918 -0.236236,-0.14174 -0.06035,-0.0603 -0.123346,-0.12335 -0.188987,-0.18899 -0.02885,-0.0131 -0.06035,-0.0289 -0.0945,-0.0472 0.0026,-0.0918 0.0026,-0.18634 0,-0.28348 -0.0761,-0.18634 -0.154842,-0.37533 -0.236233,-0.56696 0.0026,-0.42258 0.0026,-0.8478 0,-1.27567 0.09714,-0.23359 0.191633,-0.46983 0.28348,-0.70871 0.04989,-0.42257 0.09714,-0.8478 0.141743,-1.27566 0.01839,-0.15485 0.03414,-0.31234 0.04725,-0.47248 -0.0131,-0.40683 -0.02885,-0.8163 -0.04725,-1.22842 -0.06035,-0.0289 -0.123346,-0.0603 -0.18899,-0.0945 0.0026,-0.0131 0.0026,-0.0289 0,-0.0472 -0.233587,0.003 -0.469823,0.003 -0.708705,0 -0.18634,-0.0603 -0.37533,-0.12335 -0.566965,-0.18899 -0.139094,0.0184 -0.280834,0.0341 -0.425222,0.0472 0.0026,0.0341 0.0026,0.0656 0,0.0945 -0.02885,0.0184 -0.06035,0.0341 -0.09449,0.0472 0.0026,0.12864 0.0026,0.25463 0,0.37798 0.04989,0.003 0.09714,0.003 0.14174,0 0.06564,-0.1391 0.128637,-0.28084 0.188989,-0.42523 0.06564,-0.0446 0.128638,-0.0918 0.188986,-0.14174 0.11289,-0.0918 0.223134,-0.18634 0.33073,-0.28348 0.09714,0.0341 0.191635,0.0656 0.283482,0.0945 0.0026,0.0184 0.0026,0.0342 0,0.0473 0.04989,0.0184 0.09714,0.0341 0.141743,0.0472 0.01839,0.0499 0.03414,0.0971 0.04725,0.14174 0.11289,0.0814 0.223131,0.16013 0.330729,0.23623 0.0026,0.0499 0.0026,0.0971 0,0.14175 0.08139,0.0656 0.160137,0.12863 0.236236,0.18898 0.112887,0.20739 0.223131,0.41212 0.330729,0.61421 0.0026,0.14439 0.0026,0.28613 0,0.42523 -0.0131,0.53811 -0.02885,1.07358 -0.04725,1.6064 -0.02885,0.12863 -0.06035,0.25463 -0.09449,0.37797 0.0026,0.33338 0.0026,0.66411 0,0.99219 -0.02885,0.25463 -0.06035,0.50662 -0.09449,0.75595 0.0026,0.39637 0.0026,0.7901 0,1.18118 -0.02885,0.12864 -0.06035,0.25463 -0.09449,0.37797 0.0026,0.14439 0.0026,0.28613 0,0.42523 -0.0446,0.0341 -0.09185,0.0656 -0.141742,0.0945 0.0026,0.0184 0.0026,0.0342 0,0.0473 -0.02885,0.0499 -0.06035,0.0971 -0.09449,0.14174 -0.02885,0.003 -0.06035,0.003 -0.09449,0 -0.0131,0.0341 -0.02885,0.0656 -0.04725,0.0945 -0.0761,0.003 -0.154842,0.003 -0.236233,0 -0.296585,-0.13909 -0.595818,-0.28083 -0.897695,-0.42522 -0.123346,-0.21784 -0.249338,-0.43833 -0.377975,-0.66146 0.0026,-0.40683 0.0026,-0.8163 0,-1.22842 0.0026,-0.62731 0.0026,-1.25728 0,-1.88988 0.0026,-0.15485 0.0026,-0.31233 0,-0.47247 0.0026,-0.12335 0.0026,-0.24934 0,-0.37798 0.0026,-0.24934 0.0026,-0.50132 0,-0.75595 -0.0131,-0.15485 -0.02885,-0.31233 -0.04725,-0.47247 -0.02885,-0.0131 -0.06035,-0.0288 -0.0945,-0.0472 0.0026,-0.10759 0.0026,-0.21784 0,-0.33073 0.0026,-0.15484 0.0026,-0.31233 0,-0.47247 0.0026,-0.0446 0.0026,-0.0918 0,-0.14174 0.0026,0.0184 0.0026,0.0342 0,0.0473 0.0026,0.11289 0.0026,0.22313 0,0.33073 -0.0131,0.0971 -0.02885,0.19163 -0.04725,0.28348 0.0026,0.38062 0.0026,0.7586 0,1.13393 0.0026,0.49086 0.0026,0.97908 0,1.46466 0.0026,0.25463 0.0026,0.50661 0,0.75595 0.03415,0.0814 0.06564,0.16014 0.0945,0.23623 -0.202091,0.58536 -0.406828,1.16808 -0.614211,1.74814" />
      <text
         xml:space="preserve"
         style="font-style:normal;font-weight:normal;font-size:0.881944px;line-height:1.25;font-family:sans-serif;letter-spacing:0px;word-spacing:0px;fill:#000000;fill-opacity:1;stroke:none;stroke-width:0.264583"
         x="-207.13831"
         y="90.780655"
         id="text939"
         transform="rotate(-88.497666)"><tspan
           sodipodi:role="line"
           id="tspan937"
           x="-207.13831"
           y="90.780655"
           style="font-style:normal;font-variant:normal;font-weight:normal;font-stretch:normal;font-size:0.881944px;font-family:'Comic Sans MS';-inkscape-font-specification:'Comic Sans MS';stroke-width:0.264583">USS Statek</tspan></text>
    </g>
  </g>
</svg>
